<?xml version="1.0" encoding="UTF-8"?>
<svg version="1.1" xmlns="http://www.w3.org/2000/svg" width="500" height="500">
<path d="M0 0 C-0.56665524 4.11313542 -2.78152834 6.54427949 -5.375 9.6875 C-6.16648437 10.66074219 -6.95796875 11.63398438 -7.7734375 12.63671875 C-10 15 -10 15 -13 16 C-15.609375 14.55859375 -15.609375 14.55859375 -18.75 12.4375 C-36.91904562 0.7101367 -59.13195182 -4.31557777 -80.55078125 -0.23828125 C-84.44376465 0.6313799 -88.2098723 1.75818342 -92 3 C-92.89589844 3.28875 -93.79179687 3.5775 -94.71484375 3.875 C-103.05796175 6.90394397 -112.79604164 11.59655745 -119 18 C-119.66 18 -120.32 18 -121 18 C-121 18.66 -121 19.32 -121 20 C-122.71484375 21.65625 -122.71484375 21.65625 -124.9375 23.5 C-127.92045179 25.88926999 -127.92045179 25.88926999 -130 29 C-130.66 29 -131.32 29 -132 29 C-132.38091797 29.81210938 -132.38091797 29.81210938 -132.76953125 30.640625 C-134.24232584 33.46465017 -135.95924611 36.0744321 -137.6875 38.75 C-144.97302987 50.4085207 -149.85297771 62.36211444 -152 76 C-152.13019531 76.79664063 -152.26039063 77.59328125 -152.39453125 78.4140625 C-152.69454612 80.61417155 -152.87599869 82.78300693 -153 85 C-153.05285156 85.92554688 -153.10570312 86.85109375 -153.16015625 87.8046875 C-153.86194985 112.27592524 -145.48592915 134.21440556 -130 153 C-129.58105469 153.55300781 -129.16210938 154.10601562 -128.73046875 154.67578125 C-125.81283695 158.45211405 -122.46797764 161.02571593 -118.57421875 163.703125 C-118.05472656 164.13109375 -117.53523438 164.5590625 -117 165 C-117 165.66 -117 166.32 -117 167 C-116.2678125 167.27199219 -115.535625 167.54398438 -114.78125 167.82421875 C-112.12384098 168.94764588 -109.9148207 170.24534753 -107.5 171.8125 C-87.89637419 183.76165493 -64.1557306 185.35813032 -42 181 C-32.85199857 178.53053951 -24.91203381 174.53911127 -16.86328125 169.671875 C-14 168 -14 168 -11 167 C-11 166.34 -11 165.68 -11 165 C-9.35546875 163.4140625 -9.35546875 163.4140625 -7.1875 161.625 C-4.93749143 159.76433718 -3.09649715 158.13127297 -1.36328125 155.7734375 C-0.91339844 155.18820312 -0.46351563 154.60296875 0 154 C0.66 154 1.32 154 2 154 C2.28302979 153.4227417 2.56605957 152.8454834 2.85766602 152.25073242 C3.93817907 150.12180534 5.08572504 148.05666308 6.27734375 145.98828125 C6.70853516 145.22966797 7.13972656 144.47105469 7.58398438 143.68945312 C8.47697855 142.12123681 9.37531212 140.55604733 10.27929688 138.99414062 C14.24608789 131.9768814 16.89078666 124.9797744 18.1875 117 C18.34605469 116.071875 18.50460937 115.14375 18.66796875 114.1875 C19.08902464 110.14536348 19 106.06400734 19 102 C12.07 102 5.14 102 -2 102 C-3.36318359 104.63548828 -3.36318359 104.63548828 -4.75390625 107.32421875 C-5.35396484 108.48429443 -5.95402344 109.64437012 -6.57226562 110.83959961 C-7.91357439 113.4327771 -9.25469936 116.02604954 -10.59570312 118.61938477 C-13.75645297 124.73153103 -16.9178931 130.84331079 -20.08494568 136.95219421 C-21.40713388 139.5026721 -22.72859737 142.05352516 -24.05001831 144.60440063 C-24.96957919 146.37879954 -25.89016758 148.15266583 -26.81079102 149.92651367 C-30.94828817 157.91491061 -34.9959956 165.94407093 -39 174 C-39.99 174 -40.98 174 -42 174 C-46.39187797 165.42157861 -50.60467396 156.81419084 -54.41308594 147.95996094 C-56.46922078 143.1858655 -58.60850699 138.45766439 -60.8125 133.75 C-61.10261963 133.12988037 -61.39273926 132.50976074 -61.69165039 131.87084961 C-63.09061009 128.89429573 -64.52318035 125.93854133 -66 123 C-66.83640015 123.02356567 -66.83640015 123.02356567 -67.68969727 123.04760742 C-86.09241379 123.49562425 -105.18842208 123.13325585 -119.48046875 109.67578125 C-128.57499736 99.6460826 -131.88224238 88.13511098 -131.31640625 74.765625 C-130.25975497 62.19017031 -124.41231042 52.19228562 -114.8515625 44.046875 C-105.00934483 36.98205026 -95.30365787 34.82085531 -83.44140625 34.90234375 C-82.65225327 34.9037587 -81.86310028 34.90517365 -81.05003357 34.90663147 C-78.55414885 34.91218445 -76.05835715 34.92472792 -73.5625 34.9375 C-71.86002735 34.94252109 -70.15755327 34.94708293 -68.45507812 34.95117188 C-64.30335012 34.96213842 -60.15169078 34.97937009 -56 35 C-56 35.99 -56 36.98 -56 38 C-57.79296875 39.68359375 -57.79296875 39.68359375 -60.1875 41.4375 C-61.00476563 42.0459375 -61.82203125 42.654375 -62.6640625 43.28125 C-63.43492187 43.8484375 -64.20578125 44.415625 -65 45 C-66.66998649 46.32917292 -68.33857487 47.66014102 -70 49 C-67.93927445 55.57697457 -65.44523175 61.87434551 -62.6875 68.1875 C-61.89061276 70.02864054 -61.09373781 71.86978639 -60.296875 73.7109375 C-59.90822266 74.60522461 -59.51957031 75.49951172 -59.11914062 76.42089844 C-57.54607257 80.04609279 -55.99105044 83.67891014 -54.4375 87.3125 C-53.72400391 88.97732422 -53.72400391 88.97732422 -52.99609375 90.67578125 C-52.66738281 91.44277344 -52.33867187 92.20976562 -52 93 C-51.401875 92.360625 -50.80375 91.72125 -50.1875 91.0625 C-46.83120053 87.89798907 -44.09966311 87.87790241 -39.67578125 87.90234375 C-38.64775391 87.90556641 -37.61972656 87.90878906 -36.56054688 87.91210938 C-34.95276367 87.92467773 -34.95276367 87.92467773 -33.3125 87.9375 C-32.22904297 87.94201172 -31.14558594 87.94652344 -30.02929688 87.95117188 C-27.35280915 87.96296257 -24.67643223 87.97941937 -22 88 C-18.04302253 80.67538213 -14.1297425 73.33757472 -10.4375 65.875 C-6.85154632 58.64555405 -3.18174805 51.45977116 0.51535034 44.28668213 C1.15899383 43.03705821 1.80155715 41.78687718 2.44290161 40.53607178 C7.05584482 31.54357515 11.93584503 22.74667486 17 14 C18.0435988 12.16776582 19.08568077 10.33466512 20.125 8.5 C20.54007813 7.7678125 20.95515625 7.035625 21.3828125 6.28125 C22.28839272 2.93404211 21.3900293 1.13941276 20 -2 C18.6840929 -4.10069507 17.30630398 -6.16366696 15.875 -8.1875 C12 -13.66903915 12 -13.66903915 12 -17 C40.215 -17.495 40.215 -17.495 69 -18 C69 -16.68 69 -15.36 69 -14 C68.34 -13.34 67.68 -12.68 67 -12 C66.01 -12 65.02 -12 64 -12 C64 -11.34 64 -10.68 64 -10 C61.67497492 -8.00121361 59.22677487 -6.20144243 56.7734375 -4.36328125 C50.47358219 1.00490532 46.4873702 7.17818152 42.625 14.4375 C42.14949707 15.31639893 41.67399414 16.19529785 41.18408203 17.10083008 C37.98236804 23.05511227 34.90414741 29.06550299 31.91845703 35.13061523 C29.53449639 39.96965416 27.04138647 44.74192375 24.5 49.5 C21.19376408 55.69282332 18.0109827 61.93540022 14.89648438 68.2265625 C11.74580639 74.5661085 8.40172026 80.79186053 5 87 C8.82551254 87.90683403 12.2934169 88.08118529 16.21875 87.9921875 C17.39824219 87.97542969 18.57773437 87.95867187 19.79296875 87.94140625 C22.26447516 87.89713269 24.73585398 87.8450478 27.20703125 87.78515625 C28.38652344 87.77097656 29.56601562 87.75679688 30.78125 87.7421875 C32.3909668 87.70907471 32.3909668 87.70907471 34.03320312 87.67529297 C37.4504522 88.04930064 39.29173771 88.90530931 42 91 C43.45454545 96.09090909 43.45454545 96.09090909 42 99 C41.83849509 100.47780615 41.7263106 101.96117881 41.640625 103.4453125 C39.77770166 131.17173915 29.6315587 155.59990517 9.1640625 175.1328125 C-16.49291161 197.27005731 -45.53705262 204.68467658 -79 203 C-95.90107901 201.32912723 -112.52909585 194.70166704 -127 186 C-127 185.34 -127 184.68 -127 184 C-127.73863281 183.731875 -128.47726563 183.46375 -129.23828125 183.1875 C-141.74395572 177.81023686 -151.68497862 165.02620623 -159 154 C-159.87591797 152.71802734 -159.87591797 152.71802734 -160.76953125 151.41015625 C-164.89778369 144.91491483 -167.65511689 138.13961218 -170.3125 130.9375 C-170.65023437 130.02766357 -170.98796875 129.11782715 -171.3359375 128.18041992 C-174.61556674 118.94982376 -176.2358638 109.70743822 -176.6875 99.9375 C-176.74393677 98.72549927 -176.74393677 98.72549927 -176.80151367 97.48901367 C-177.9631839 67.37629753 -169.70312782 40.13875725 -150 17 C-149.30390625 16.08347656 -148.6078125 15.16695312 -147.890625 14.22265625 C-146.95476562 13.12244141 -146.95476562 13.12244141 -146 12 C-145.34 12 -144.68 12 -144 12 C-144 11.34 -144 10.68 -144 10 C-141.89202171 8.16488946 -139.77706136 6.44790624 -137.5625 4.75 C-136.97017578 4.28464844 -136.37785156 3.81929687 -135.76757812 3.33984375 C-128.07870148 -2.63034282 -120.28909977 -7.67942921 -111.375 -11.625 C-110.50472168 -12.01179932 -109.63444336 -12.39859863 -108.73779297 -12.79711914 C-72.55926034 -28.46872695 -31.43286955 -23.82814305 0 0 Z M-97.875 58.79296875 C-98.57625 59.58316406 -99.2775 60.37335938 -100 61.1875 C-100.70125 61.96480469 -101.4025 62.74210937 -102.125 63.54296875 C-107.07093066 70.02419872 -106.83130491 77.14116909 -106 85 C-104.05098421 91.2652911 -100.50914199 97.27288491 -95 101 C-87.73907199 104.71759514 -81.06909593 105.56187128 -73 105 C-74.45600188 100.39051113 -76.23180658 95.97775782 -78.1875 91.5625 C-78.64552002 90.52186401 -78.64552002 90.52186401 -79.11279297 89.46020508 C-81.77751473 83.43695151 -84.55158846 77.46725704 -87.35546875 71.5078125 C-89.61352341 66.69134436 -91.81248255 61.848829 -94 57 C-96.19146903 56.76962664 -96.19146903 56.76962664 -97.875 58.79296875 Z M-49 100 C-47.08659036 105.74022892 -45.21389186 111.06598086 -42.8125 116.5625 C-42.53986328 117.18962891 -42.26722656 117.81675781 -41.98632812 118.46289062 C-41.32762687 119.9767479 -40.66432675 121.4886029 -40 123 C-35.76599259 119.45258838 -33.95601622 115.17484263 -31.75 110.25 C-30.5125 107.5275 -29.275 104.805 -28 102 C-34.93 101.34 -41.86 100.68 -49 100 Z " fill="#C6C9CE" transform="translate(317,137)"/>
<path d="M0 0 C0 1.32 0 2.64 0 4 C-0.66 4.66 -1.32 5.32 -2 6 C-2.99 6 -3.98 6 -5 6 C-5 6.66 -5 7.32 -5 8 C-7.32502508 9.99878639 -9.77322513 11.79855757 -12.2265625 13.63671875 C-18.52641781 19.00490532 -22.5126298 25.17818152 -26.375 32.4375 C-26.85050293 33.31639893 -27.32600586 34.19529785 -27.81591797 35.10083008 C-31.01763196 41.05511227 -34.09585259 47.06550299 -37.08154297 53.13061523 C-39.46550361 57.96965416 -41.95861353 62.74192375 -44.5 67.5 C-47.80623592 73.69282332 -50.9890173 79.93540022 -54.10351562 86.2265625 C-57.25419361 92.5661085 -60.59827974 98.79186053 -64 105 C-60.17448746 105.90683403 -56.7065831 106.08118529 -52.78125 105.9921875 C-51.60175781 105.97542969 -50.42226563 105.95867187 -49.20703125 105.94140625 C-46.73552484 105.89713269 -44.26414602 105.8450478 -41.79296875 105.78515625 C-40.61347656 105.77097656 -39.43398438 105.75679688 -38.21875 105.7421875 C-36.6090332 105.70907471 -36.6090332 105.70907471 -34.96679688 105.67529297 C-31.6090637 106.04278681 -29.73897837 107.07498722 -27 109 C-27.92307692 117 -27.92307692 117 -30 120 C-30.99 120.33 -31.98 120.66 -33 121 C-33.33 120.67 -33.66 120.34 -34 120 C-40.50181671 119.12922098 -46.83814808 118.74903272 -53.328125 119.73388672 C-56.81748491 120.08141982 -60.28707566 120.05954799 -63.7890625 120.03515625 C-64.48362549 120.03261841 -65.17818848 120.03008057 -65.89379883 120.02746582 C-67.59587777 120.02087996 -69.29794254 120.01079276 -71 120 C-71.37584229 120.72662842 -71.75168457 121.45325684 -72.13891602 122.2019043 C-73.28335039 124.41447742 -74.42780199 126.62704162 -75.57226562 128.83959961 C-76.91357439 131.4327771 -78.25469936 134.02604954 -79.59570312 136.61938477 C-82.75645297 142.73153103 -85.9178931 148.84331079 -89.08494568 154.95219421 C-90.40713388 157.5026721 -91.72859737 160.05352516 -93.05001831 162.60440063 C-93.96957919 164.37879954 -94.89016758 166.15266583 -95.81079102 167.92651367 C-99.94828817 175.91491061 -103.9959956 183.94407093 -108 192 C-108.99 192 -109.98 192 -111 192 C-115.39187797 183.42157861 -119.60467396 174.81419084 -123.41308594 165.95996094 C-125.46922078 161.1858655 -127.60850699 156.45766439 -129.8125 151.75 C-130.10261963 151.12988037 -130.39273926 150.50976074 -130.69165039 149.87084961 C-132.09061009 146.89429573 -133.52318035 143.93854133 -135 141 C-135.83640015 141.02356567 -135.83640015 141.02356567 -136.68969727 141.04760742 C-155.09241379 141.49562425 -174.18842208 141.13325585 -188.48046875 127.67578125 C-197.57499736 117.6460826 -200.88224238 106.13511098 -200.31640625 92.765625 C-199.25975497 80.19017031 -193.41231042 70.19228562 -183.8515625 62.046875 C-174.00934483 54.98205026 -164.30365787 52.82085531 -152.44140625 52.90234375 C-151.65225327 52.9037587 -150.86310028 52.90517365 -150.05003357 52.90663147 C-147.55414885 52.91218445 -145.05835715 52.92472792 -142.5625 52.9375 C-140.86002735 52.94252109 -139.15755327 52.94708293 -137.45507812 52.95117188 C-133.30335012 52.96213842 -129.15169078 52.97937009 -125 53 C-125 53.99 -125 54.98 -125 56 C-126.79296875 57.68359375 -126.79296875 57.68359375 -129.1875 59.4375 C-130.00476563 60.0459375 -130.82203125 60.654375 -131.6640625 61.28125 C-132.43492187 61.8484375 -133.20578125 62.415625 -134 63 C-135.66998649 64.32917292 -137.33857487 65.66014102 -139 67 C-136.93927445 73.57697457 -134.44523175 79.87434551 -131.6875 86.1875 C-130.89061276 88.02864054 -130.09373781 89.86978639 -129.296875 91.7109375 C-128.90822266 92.60522461 -128.51957031 93.49951172 -128.11914062 94.42089844 C-126.54607257 98.04609279 -124.99105044 101.67891014 -123.4375 105.3125 C-122.72400391 106.97732422 -122.72400391 106.97732422 -121.99609375 108.67578125 C-121.66738281 109.44277344 -121.33867187 110.20976562 -121 111 C-120.401875 110.360625 -119.80375 109.72125 -119.1875 109.0625 C-115.83120053 105.89798907 -113.09966311 105.87790241 -108.67578125 105.90234375 C-107.64775391 105.90556641 -106.61972656 105.90878906 -105.56054688 105.91210938 C-103.95276367 105.92467773 -103.95276367 105.92467773 -102.3125 105.9375 C-100.68731445 105.94426758 -100.68731445 105.94426758 -99.02929688 105.95117188 C-96.35280915 105.96296257 -93.67643223 105.97941937 -91 106 C-87.04302253 98.67538213 -83.1297425 91.33757472 -79.4375 83.875 C-75.85154632 76.64555405 -72.18174805 69.45977116 -68.48464966 62.28668213 C-67.84100617 61.03705821 -67.19844285 59.78687718 -66.55709839 58.53607178 C-61.94415518 49.54357515 -57.06415497 40.74667486 -52 32 C-50.9564012 30.16776582 -49.91431923 28.33466512 -48.875 26.5 C-48.45992187 25.7678125 -48.04484375 25.035625 -47.6171875 24.28125 C-46.71160728 20.93404211 -47.6099707 19.13941276 -49 16 C-50.3159071 13.89930493 -51.69369602 11.83633304 -53.125 9.8125 C-57 4.33096085 -57 4.33096085 -57 1 C-49.84669612 0.85675198 -42.69337419 0.71443273 -35.54003906 0.57275391 C-33.10741763 0.52446446 -30.67480039 0.47596374 -28.2421875 0.42724609 C-24.74219834 0.35718912 -21.24219476 0.28789617 -17.7421875 0.21875 C-16.65759247 0.19687622 -15.57299744 0.17500244 -14.45553589 0.15246582 C-9.63624842 0.05792803 -4.82051843 -0.02908307 0 0 Z M-166.875 76.79296875 C-167.57625 77.58316406 -168.2775 78.37335938 -169 79.1875 C-169.70125 79.96480469 -170.4025 80.74210937 -171.125 81.54296875 C-176.07093066 88.02419872 -175.83130491 95.14116909 -175 103 C-173.05098421 109.2652911 -169.50914199 115.27288491 -164 119 C-156.73907199 122.71759514 -150.06909593 123.56187128 -142 123 C-143.45600188 118.39051113 -145.23180658 113.97775782 -147.1875 109.5625 C-147.64552002 108.52186401 -147.64552002 108.52186401 -148.11279297 107.46020508 C-150.77751473 101.43695151 -153.55158846 95.46725704 -156.35546875 89.5078125 C-158.61352341 84.69134436 -160.81248255 79.848829 -163 75 C-165.19146903 74.76962664 -165.19146903 74.76962664 -166.875 76.79296875 Z M-118 118 C-116.08659036 123.74022892 -114.21389186 129.06598086 -111.8125 134.5625 C-111.53986328 135.18962891 -111.26722656 135.81675781 -110.98632812 136.46289062 C-110.32762687 137.9767479 -109.66432675 139.4886029 -109 141 C-104.76599259 137.45258838 -102.95601622 133.17484263 -100.75 128.25 C-99.5125 125.5275 -98.275 122.805 -97 120 C-103.93 119.34 -110.86 118.68 -118 118 Z " fill="#C9D1D7" transform="translate(386,119)"/>
<path d="M0 0 C2.42049032 2.87433225 3 4.24181381 3 8 C3.66 8 4.32 8 5 8 C5.268125 7.071875 5.53625 6.14375 5.8125 5.1875 C7.54079696 0.5483871 7.54079696 0.5483871 10 -1 C12.6875 -0.6875 12.6875 -0.6875 15 0 C14.37763379 3.81717943 13.24945338 6.99511877 11.625 10.5 C11.20476562 11.4178125 10.78453125 12.335625 10.3515625 13.28125 C7.73553103 18.54355609 7.73553103 18.54355609 6 21 C5.01 21 4.02 21 3 21 C0.36 15.72 -2.28 10.44 -5 5 C-6.83923336 9.29154452 -8.42274933 13.04098575 -9.6875 17.4375 C-9.93886719 18.30246094 -10.19023437 19.16742188 -10.44921875 20.05859375 C-10.63097656 20.69925781 -10.81273437 21.33992188 -11 22 C-12.890625 21.75390625 -12.890625 21.75390625 -15 21 C-16.44963687 18.44149911 -17.10400905 15.8223715 -18 13 C-20.475 17.455 -20.475 17.455 -23 22 C-23.99 21.67 -24.98 21.34 -26 21 C-27.21432879 18.41179557 -28.23157583 15.93130828 -29.1875 13.25 C-29.59645508 12.17492187 -29.59645508 12.17492187 -30.01367188 11.078125 C-31.41017253 7.27012322 -32.36488485 4.1191445 -32 0 C-30.02 0 -28.04 0 -26 0 C-25.34 1.98 -24.68 3.96 -24 6 C-23.01 4.02 -22.02 2.04 -21 0 C-17.75791433 0.35049575 -16.38472296 0.56221181 -14.1875 3.0625 C-13.795625 3.701875 -13.40375 4.34125 -13 5 C-12.731875 4.195625 -12.46375 3.39125 -12.1875 2.5625 C-11.795625 1.716875 -11.40375 0.87125 -11 0 C-7.1099603 -1.2966799 -3.92514948 -1.21025442 0 0 Z " fill="#BFB9C1" transform="translate(205,361)"/>
<path d="M0 0 C2.9375 2.5 2.9375 2.5 5 5 C5.33 5.33 5.66 5.66 6 6 C6.57413536 10.55543464 6.63047301 13.97819891 4.1875 17.9375 C0.51597888 21.39921991 -1.84907744 22.4459475 -6.93359375 22.32421875 C-10.30005645 21.79602139 -12.42749923 20.14375064 -15 18 C-17.08133467 14.877998 -17.2737822 14.06733011 -17.25 10.5 C-17.25773438 9.33984375 -17.25773438 9.33984375 -17.265625 8.15625 C-17 6 -17 6 -15 3 C-14.34 3 -13.68 3 -13 3 C-13 2.34 -13 1.68 -13 1 C-8.58482856 -1.34555983 -4.70741695 -1.51207938 0 0 Z M-9.8125 6.125 C-11.54458662 8.85987361 -11.40373601 10.83740129 -11 14 C-8.17282787 16.33296251 -8.17282787 16.33296251 -4.9375 15.75 C-1.900541 15.2406756 -1.900541 15.2406756 0 13 C0.36487512 10.15397406 0.40199375 8.6135694 -1.1875 6.1875 C-4.20376831 4.21132421 -6.75436831 4.22684929 -9.8125 6.125 Z " fill="#D9D4D9" transform="translate(166,361)"/>
<path d="M0 0 C2.475 0.99 2.475 0.99 5 2 C5 2.66 5 3.32 5 4 C5.99 4.33 6.98 4.66 8 5 C8 5.66 8 6.32 8 7 C8.99 7.33 9.98 7.66 11 8 C11.66 5.69 12.32 3.38 13 1 C14.65 1 16.3 1 18 1 C18 7.6 18 14.2 18 21 C17.01 21.33 16.02 21.66 15 22 C12 19 9 16 6 13 C5.67 15.97 5.34 18.94 5 22 C3.35 22.33 1.7 22.66 0 23 C-2.44104498 18.32366862 -2.08664224 14.34013658 -1.6875 9.25 C-1.63916016 8.47011719 -1.59082031 7.69023437 -1.54101562 6.88671875 C-1.14670139 1.14670139 -1.14670139 1.14670139 0 0 Z " fill="#969098" transform="translate(243,360)"/>
<path d="M0 0 C0.99 0.66 1.98 1.32 3 2 C3 2.66 3 3.32 3 4 C2.34 4 1.68 4 1 4 C1 5.65 1 7.3 1 9 C1.99 9.33 2.98 9.66 4 10 C4.43184885 15.26855601 4.43184885 15.26855601 4 18 C1.05242874 20.61070597 -2.07564103 21.81312576 -6 22 C-13.89240506 19.27848101 -13.89240506 19.27848101 -16 16 C-17.1174189 11.84958695 -17.11420443 9.40307445 -15.9375 5.25 C-11.89944966 -1.5235038 -7.03503935 -1.49927068 0 0 Z M-10 7 C-10.25003964 10.54178598 -10.25003964 10.54178598 -10 14 C-8.81575674 15.41577477 -8.81575674 15.41577477 -5.4375 15.0625 C-3.7359375 15.0315625 -3.7359375 15.0315625 -2 15 C-2.37125 14.4225 -2.7425 13.845 -3.125 13.25 C-3.41375 12.5075 -3.7025 11.765 -4 11 C-3.0625 8.875 -3.0625 8.875 -2 7 C-2.33 6.34 -2.66 5.68 -3 5 C-6.95457848 4.65176193 -6.95457848 4.65176193 -10 7 Z " fill="#CBC3CB" transform="translate(122,361)"/>
<path d="M0 0 C1.8975 -0.061875 3.795 -0.12375 5.75 -0.1875 C7.35101563 -0.23970703 7.35101563 -0.23970703 8.984375 -0.29296875 C12.35190116 0.03418729 13.69283914 0.54933153 16 3 C16.64818763 9.80597015 16.64818763 9.80597015 14.8125 13.1875 C14.544375 13.785625 14.27625 14.38375 14 15 C15.28184562 17.74832154 15.28184562 17.74832154 17 20 C16.34 20.66 15.68 21.32 15 22 C12.47442523 21.75558954 11.2147398 21.17639341 9.25 19.5625 C8 18 8 18 8 16 C7.34 16 6.68 16 6 16 C6.020625 16.804375 6.04125 17.60875 6.0625 18.4375 C6 21 6 21 5 22 C3.35 22 1.7 22 0 22 C0 14.74 0 7.48 0 0 Z M6 6 C6.33 6.66 6.66 7.32 7 8 C7.99 8 8.98 8 10 8 C10 7.34 10 6.68 10 6 C8.68 6 7.36 6 6 6 Z " fill="#D3CBD4" transform="translate(130,361)"/>
<path d="M0 0 C0.99 0.33 1.98 0.66 3 1 C3 7.6 3 14.2 3 21 C1.68 21.33 0.36 21.66 -1 22 C-1.66 20.02 -2.32 18.04 -3 16 C-3.99 16.99 -4.98 17.98 -6 19 C-9.16115776 17.63016497 -9.9927092 17.0109362 -12 14 C-12.33 16.31 -12.66 18.62 -13 21 C-14.9375 21.5625 -14.9375 21.5625 -17 22 C-18 21 -18 21 -18.11352539 19.05053711 C-18.10567017 17.8015564 -18.10567017 17.8015564 -18.09765625 16.52734375 C-18.09443359 15.62822266 -18.09121094 14.72910156 -18.08789062 13.80273438 C-18.07951172 12.85720703 -18.07113281 11.91167969 -18.0625 10.9375 C-18.05798828 9.98810547 -18.05347656 9.03871094 -18.04882812 8.06054688 C-18.0370011 5.70696935 -18.02052025 3.35351523 -18 1 C-16.68 1 -15.36 1 -14 1 C-12.296875 2.96875 -12.296875 2.96875 -10.75 5.5 C-9.96882813 6.75296875 -9.96882813 6.75296875 -9.171875 8.03125 C-8.78515625 8.6809375 -8.3984375 9.330625 -8 10 C-4.74475735 6.97727468 -2.38179263 3.74281699 0 0 Z " fill="#BBB4BE" transform="translate(327,361)"/>
<path d="M0 0 C2.83058277 1.15512753 4.63765672 2.85685476 6.875 4.9296875 C7.67421875 5.66316406 8.4734375 6.39664063 9.296875 7.15234375 C9.90015625 7.71824219 10.5034375 8.28414062 11.125 8.8671875 C10.42322123 12.10205344 9.76023506 13.75899945 7.125 15.8671875 C6.465 15.8671875 5.805 15.8671875 5.125 15.8671875 C4.83625 16.4859375 4.5475 17.1046875 4.25 17.7421875 C3.125 19.8671875 3.125 19.8671875 1.125 21.8671875 C-1.75187481 21.64588944 -3.41451144 21.23240256 -5.6875 19.4296875 C-6.875 17.8671875 -6.875 17.8671875 -6.875 15.8671875 C-7.535 15.8671875 -8.195 15.8671875 -8.875 15.8671875 C-10.5625 14.1171875 -10.5625 14.1171875 -11.875 11.8671875 C-11.5625 9.6171875 -11.5625 9.6171875 -10.875 7.8671875 C-10.215 7.8671875 -9.555 7.8671875 -8.875 7.8671875 C-8.875 7.2071875 -8.875 6.5471875 -8.875 5.8671875 C-8.215 5.8671875 -7.555 5.8671875 -6.875 5.8671875 C-6.875 5.2071875 -6.875 4.5471875 -6.875 3.8671875 C-2.70056591 -0.19129009 -2.70056591 -0.19129009 0 0 Z " fill="#D2D0D5" transform="translate(250.875,74.1328125)"/>
<path d="M0 0 C1.79244141 0.01740234 1.79244141 0.01740234 3.62109375 0.03515625 C5.41740234 0.04869141 5.41740234 0.04869141 7.25 0.0625 C8.17683594 0.07410156 9.10367187 0.08570313 10.05859375 0.09765625 C10.38859375 1.74765625 10.71859375 3.39765625 11.05859375 5.09765625 C9.07859375 6.08765625 9.07859375 6.08765625 7.05859375 7.09765625 C7.05859375 7.75765625 7.05859375 8.41765625 7.05859375 9.09765625 C7.71859375 9.09765625 8.37859375 9.09765625 9.05859375 9.09765625 C9.05859375 10.41765625 9.05859375 11.73765625 9.05859375 13.09765625 C6.74859375 13.42765625 4.43859375 13.75765625 2.05859375 14.09765625 C2.05859375 14.75765625 2.05859375 15.41765625 2.05859375 16.09765625 C5.02859375 16.42765625 7.99859375 16.75765625 11.05859375 17.09765625 C11.05859375 18.74765625 11.05859375 20.39765625 11.05859375 22.09765625 C8.74615583 22.12451037 6.43363105 22.14398466 4.12109375 22.16015625 C2.83332031 22.17175781 1.54554688 22.18335938 0.21875 22.1953125 C-2.94140625 22.09765625 -2.94140625 22.09765625 -3.94140625 21.09765625 C-4.04021422 19.62112961 -4.0721987 18.13998389 -4.07421875 16.66015625 C-4.07550781 15.76554687 -4.07679688 14.8709375 -4.078125 13.94921875 C-4.07232422 12.53769531 -4.07232422 12.53769531 -4.06640625 11.09765625 C-4.07027344 10.15664063 -4.07414062 9.215625 -4.078125 8.24609375 C-4.07683594 7.35148437 -4.07554687 6.456875 -4.07421875 5.53515625 C-4.07252686 4.29572266 -4.07252686 4.29572266 -4.07080078 3.03125 C-3.85677557 -0.16701349 -3.25759769 0.10815397 0 0 Z " fill="#D3CCD9" transform="translate(338.94140625,360.90234375)"/>
<path d="M0 0 C1.32 0 2.64 0 4 0 C5.294174 2.56126064 6.58540784 5.12393358 7.875 7.6875 C8.23980469 8.40873047 8.60460937 9.12996094 8.98046875 9.87304688 C10.8179242 13.53125364 12.56138502 17.1611695 14 21 C13 22 13 22 10.5625 22.25 C9.716875 22.1675 8.87125 22.085 8 22 C7.34 21.01 6.68 20.02 6 19 C2.54213985 18.49992206 2.54213985 18.49992206 -1 19 C-2.62514468 20.45833358 -2.62514468 20.45833358 -4 22 C-6.6875 22.1875 -6.6875 22.1875 -9 22 C-8.4560915 16.52638111 -6.44606199 12.41682999 -3.9375 7.625 C-3.37192383 6.52091797 -3.37192383 6.52091797 -2.79492188 5.39453125 C-1.87055636 3.59260354 -0.93627386 1.79576901 0 0 Z " fill="#C3C2C4" transform="translate(287,361)"/>
<path d="M0 0 C3.87830715 2.05787726 4.74428933 3.38851797 6.4375 7.4375 C7.04713227 11.29850438 7.04137929 12.71604201 5 16 C0.80971071 19.77126036 -1.54405753 21.13405054 -7.125 21.0625 C-8.03507812 21.05347656 -8.94515625 21.04445313 -9.8828125 21.03515625 C-10.93082031 21.01775391 -10.93082031 21.01775391 -12 21 C-13.17426264 18.65147472 -13.11508173 17.26225935 -13.09765625 14.6484375 C-13.09443359 13.79765625 -13.09121094 12.946875 -13.08789062 12.0703125 C-13.07951172 11.18085938 -13.07113281 10.29140625 -13.0625 9.375 C-13.05798828 8.4778125 -13.05347656 7.580625 -13.04882812 6.65625 C-13.03702591 4.43743352 -13.02056155 2.21874982 -13 0 C-9.06041164 -1.96979418 -4.20877317 -0.77241935 0 0 Z M-8 4 C-8.02687279 5.81242052 -8.04633715 7.62495233 -8.0625 9.4375 C-8.07410156 10.44683594 -8.08570313 11.45617187 -8.09765625 12.49609375 C-8.28612676 14.94021067 -8.28612676 14.94021067 -7 16 C-5.00041636 16.04080783 -2.99954746 16.04254356 -1 16 C0.8084595 13.30128645 0.8084595 13.30128645 2 10 C0.9091155 7.54550989 -0.1095048 5.8904952 -2 4 C-3.99958364 3.95919217 -6.00045254 3.95745644 -8 4 Z " fill="#9A93A0" transform="translate(367,362)"/>
<path d="M0 0 C1.9309082 0.23730469 1.9309082 0.23730469 4 1 C5.5864403 3.41350844 6.9006385 5.68593451 8.1875 8.25 C8.72020508 9.25353516 8.72020508 9.25353516 9.26367188 10.27734375 C11.10058686 13.82569186 12.47915934 16.98874951 13 21 C11.35 21.33 9.7 21.66 8 22 C7.34 21.01 6.68 20.02 6 19 C4.098006 18.52441794 4.098006 18.52441794 2 18.625 C0.948125 18.61339844 0.948125 18.61339844 -0.125 18.6015625 C-2.41058594 18.859086 -2.41058594 18.859086 -4 22 C-5.65 21.67 -7.3 21.34 -9 21 C-8.37137061 18.2382471 -7.54210251 15.73756297 -6.40625 13.14453125 C-5.94412109 12.08782227 -5.94412109 12.08782227 -5.47265625 11.00976562 C-5.15167969 10.28466797 -4.83070313 9.55957031 -4.5 8.8125 C-4.17902344 8.07580078 -3.85804688 7.33910156 -3.52734375 6.58007812 C-1.13127309 1.13127309 -1.13127309 1.13127309 0 0 Z " fill="#F0EBEF" transform="translate(227,361)"/>
<path d="M0 0 C1.98 0 3.96 0 6 0 C6.66 1.98 7.32 3.96 8 6 C8.99 4.02 9.98 2.04 11 0 C12.65 0.33 14.3 0.66 16 1 C16.75612577 6.23471686 17.2063366 10.77254141 16 16 C15.34 15.01 14.68 14.02 14 13 C12.35 15.97 10.7 18.94 9 22 C8.01 21.67 7.02 21.34 6 21 C4.78567121 18.41179557 3.76842417 15.93130828 2.8125 13.25 C2.40354492 12.17492187 2.40354492 12.17492187 1.98632812 11.078125 C0.58982747 7.27012322 -0.36488485 4.1191445 0 0 Z " fill="#DBD1DB" transform="translate(173,361)"/>
<path d="M0 0 C3.08953668 2.61778108 4.45169104 5.66737721 6.125 9.3125 C6.90230469 10.97732422 6.90230469 10.97732422 7.6953125 12.67578125 C8.9337364 15.8311667 9.58406952 18.64719455 10 22 C8.35 21.67 6.7 21.34 5 21 C5 20.01 5 19.02 5 18 C2.03 17.67 -0.94 17.34 -4 17 C-4.33 18.32 -4.66 19.64 -5 21 C-6.65 21.33 -8.3 21.66 -10 22 C-10.89693275 19.54173987 -11.15627636 18.39590011 -10.1796875 15.921875 C-9.74914062 15.20515625 -9.31859375 14.4884375 -8.875 13.75 C-8.41351563 12.97140625 -7.95203125 12.1928125 -7.4765625 11.390625 C-6.98929687 10.60171875 -6.50203125 9.8128125 -6 9 C-5.53335937 8.23171875 -5.06671875 7.4634375 -4.5859375 6.671875 C-1.25233645 1.25233645 -1.25233645 1.25233645 0 0 Z M0 10 C-0.33 10.99 -0.66 11.98 -1 13 C-0.34 13 0.32 13 1 13 C0.67 12.01 0.34 11.02 0 10 Z " fill="#B9B6BC" transform="translate(396,361)"/>
<path d="M0 0 C5.61 0 11.22 0 17 0 C17 1.65 17 3.3 17 5 C15.35 5 13.7 5 12 5 C12.01160156 6.05960937 12.02320313 7.11921875 12.03515625 8.2109375 C12.04453476 9.59895658 12.05363489 10.98697755 12.0625 12.375 C12.07087891 13.07367188 12.07925781 13.77234375 12.08789062 14.4921875 C12.11328125 19.7734375 12.11328125 19.7734375 11 22 C6.125 21.125 6.125 21.125 5 20 C4.92686433 17.46950598 4.90752473 14.96695163 4.9375 12.4375 C4.94201172 11.72658203 4.94652344 11.01566406 4.95117188 10.28320312 C4.96299136 8.52209987 4.98092737 6.76103964 5 5 C3.35 5 1.7 5 0 5 C0 3.35 0 1.7 0 0 Z " fill="#A9A3AA" transform="translate(263,361)"/>
<path d="M0 0 C1.1446875 0.3403125 1.1446875 0.3403125 2.3125 0.6875 C1.69013379 4.50467943 0.56195338 7.68261877 -1.0625 11.1875 C-1.48273438 12.1053125 -1.90296875 13.023125 -2.3359375 13.96875 C-4.95196897 19.23105609 -4.95196897 19.23105609 -6.6875 21.6875 C-7.6775 21.6875 -8.6675 21.6875 -9.6875 21.6875 C-10.5513129 20.23485962 -11.40330454 18.7751837 -12.25 17.3125 C-12.72566406 16.50039063 -13.20132813 15.68828125 -13.69140625 14.8515625 C-14.18447266 13.78035156 -14.18447266 13.78035156 -14.6875 12.6875 C-14.3575 12.0275 -14.0275 11.3675 -13.6875 10.6875 C-12.3675 11.6775 -11.0475 12.6675 -9.6875 13.6875 C-10.0175 11.0475 -10.3475 8.4075 -10.6875 5.6875 C-10.3575 6.6775 -10.0275 7.6675 -9.6875 8.6875 C-9.0275 8.6875 -8.3675 8.6875 -7.6875 8.6875 C-7.2853125 7.2953125 -7.2853125 7.2953125 -6.875 5.875 C-4.4916958 -0.52229021 -4.4916958 -0.52229021 0 0 Z " fill="#DED3DB" transform="translate(217.6875,360.3125)"/>
<path d="M0 0 C0.68707031 0.0721875 1.37414062 0.144375 2.08203125 0.21875 C2.98308594 0.3115625 3.88414062 0.404375 4.8125 0.5 C5.70582031 0.5928125 6.59914062 0.685625 7.51953125 0.78125 C10.08305099 1.04392401 10.08305099 1.04392401 13 1 C15.18274099 1.67258879 17.30921401 2.4592328 19.453125 3.24609375 C26.86429848 5.43989204 34.56868598 5.21863888 42.22338867 5.24023438 C44.29712233 5.24992812 46.36985779 5.28101249 48.44335938 5.3125 C55.29338932 5.36547764 61.41423776 5.09686973 67.87573242 2.64746094 C70.33301212 1.89850039 72.44543447 1.893688 75 2 C67.66139217 9.33860783 50.60272928 8.44919252 41.0625 8.5 C26.57125806 8.41342995 13.47519878 6.27224706 0 1 C0 0.67 0 0.34 0 0 Z " fill="#716D70" transform="translate(211,332)"/>
<path d="M0 0 C1.65 0 3.3 0 5 0 C5 6.6 5 13.2 5 20 C4.01 20.33 3.02 20.66 2 21 C-0.125 19.875 -0.125 19.875 -2 18 C-2.625 15.4375 -2.625 15.4375 -3 13 C-3.66 12.34 -4.32 11.68 -5 11 C-3.68 10.67 -2.36 10.34 -1 10 C-0.67 6.7 -0.34 3.4 0 0 Z " fill="#E7E2E8" transform="translate(256,361)"/>
<path d="M0 0 C0.99 0 1.98 0 3 0 C2.67 1.98 2.34 3.96 2 6 C1.01 6 0.02 6 -1 6 C-1.0825 6.886875 -1.165 7.77375 -1.25 8.6875 C-2 12 -2 12 -3.875 14.25 C-6.02629641 17.03403065 -6.57377888 18.66356872 -7.4375 22 C-8.70488307 26.71748144 -10.23079789 28.94389018 -14 32 C-12.92912058 19.87065143 -7.80032908 9.31705973 0 0 Z " fill="#E2D2E5" transform="translate(161,162)"/>
<path d="M0 0 C3.875 0.875 3.875 0.875 5 2 C5.08651611 3.41570123 5.10704904 4.835595 5.09765625 6.25390625 C5.09443359 7.10791016 5.09121094 7.96191406 5.08789062 8.84179688 C5.07951172 9.73962891 5.07113281 10.63746094 5.0625 11.5625 C5.05798828 12.46419922 5.05347656 13.36589844 5.04882812 14.29492188 C5.03700225 16.53001314 5.0205222 18.76497437 5 21 C3.35 21.33 1.7 21.66 0 22 C-1.06755357 14.6605692 -1.87744205 7.27508794 0 0 Z " fill="#9C95A5" transform="translate(378,361)"/>
<path d="M0 0 C0.66 0.33 1.32 0.66 2 1 C2.62627475 8.985003 2.62627475 8.985003 0.1875 12.9375 C-3.48483698 16.39998915 -5.84478253 17.42985615 -10.92578125 17.3359375 C-14.33147834 16.78435567 -16.33329565 15.13336348 -19 13 C-16 13 -16 13 -13 14 C-13.33 12.35 -13.66 10.7 -14 9 C-13.0925 9.20625 -12.185 9.4125 -11.25 9.625 C-7.76861938 10.02669776 -6.9317167 9.61749887 -4 8 C-3.01 8.33 -2.02 8.66 -1 9 C-0.67 6.03 -0.34 3.06 0 0 Z " fill="#CBC7CF" transform="translate(170,366)"/>
<path d="M0 0 C2.77093365 0.65921405 4.12691694 1.2158145 5.9375 3.4609375 C7.00669522 7.18332086 7.37052981 10.30619134 6 13.9609375 C5.649375 14.4559375 5.29875 14.9509375 4.9375 15.4609375 C3.9475 15.1309375 2.9575 14.8009375 1.9375 14.4609375 C1.19490651 12.15064665 0.526062 9.8151855 -0.0625 7.4609375 C-1.11560277 6.19090427 -1.11560277 6.19090427 -3.5 6.2734375 C-6.22984675 6.19253767 -6.22984675 6.19253767 -8.0625 8.4609375 C-8.46014263 10.44915063 -8.80025349 12.45038089 -9.0625 14.4609375 C-9.3925 14.4609375 -9.7225 14.4609375 -10.0625 14.4609375 C-10.0625 11.4909375 -10.0625 8.5209375 -10.0625 5.4609375 C-6.29562136 3.57749818 -5.03291037 3.24035915 -1.0625 3.4609375 C-0.7325 2.8009375 -0.4025 2.1409375 -0.0625 1.4609375 C-3.0325 1.4609375 -6.0025 1.4609375 -9.0625 1.4609375 C-5.61185137 -0.83949492 -4.00355342 -0.66235259 0 0 Z " fill="#B6B1B7" transform="translate(164.0625,360.5390625)"/>
<path d="M0 0 C3.16305105 2.65810615 4.54145622 5.85097893 6.25 9.5625 C6.79140625 10.71878906 7.3328125 11.87507813 7.890625 13.06640625 C8.25671875 14.03449219 8.6228125 15.00257813 9 16 C8.67 16.66 8.34 17.32 8 18 C7.34 16.68 6.68 15.36 6 14 C3.03 14 0.06 14 -3 14 C-2.67 12.35 -2.34 10.7 -2 9 C-3.98 9.99 -3.98 9.99 -6 11 C-4.55662437 7.11398869 -2.98188088 2.98188088 0 0 Z M0 10 C-0.33 10.99 -0.66 11.98 -1 13 C-0.34 13 0.32 13 1 13 C0.67 12.01 0.34 11.02 0 10 Z " fill="#A7A1A8" transform="translate(396,361)"/>
<path d="M0 0 C1.01382963 3.6208201 1.49897691 7.27811418 2 11 C1.34 11 0.68 11 0 11 C-1.72932949 18.15040149 -2.76234387 25.26073207 -3.625 32.5625 C-3.7590625 33.66658203 -3.893125 34.77066406 -4.03125 35.90820312 C-4.35813647 38.60501651 -4.6809627 41.30224876 -5 44 C-5.66 43.67 -6.32 43.34 -7 43 C-6.74176198 27.73724279 -4.93557391 14.49686506 0 0 Z " fill="#CDB6D5" transform="translate(147,187)"/>
<path d="M0 0 C0 1.32 0 2.64 0 4 C-0.66 4.66 -1.32 5.32 -2 6 C-2.99 6 -3.98 6 -5 6 C-5.33 6.66 -5.66 7.32 -6 8 C-6 7.01 -6 6.02 -6 5 C-6.66 4.67 -7.32 4.34 -8 4 C-8 3.67 -8 3.34 -8 3 C-23.84 2.67 -39.68 2.34 -56 2 C-56.33 2.66 -56.66 3.32 -57 4 C-57 3.01 -57 2.02 -57 1 C-49.84669612 0.85675198 -42.69337419 0.71443273 -35.54003906 0.57275391 C-33.10741763 0.52446446 -30.67480039 0.47596374 -28.2421875 0.42724609 C-24.74219834 0.35718912 -21.24219476 0.28789617 -17.7421875 0.21875 C-16.65759247 0.19687622 -15.57299744 0.17500244 -14.45553589 0.15246582 C-9.63624842 0.05792803 -4.82051843 -0.02908307 0 0 Z " fill="#9E91A5" transform="translate(386,119)"/>
<path d="M0 0 C0.33 0.66 0.66 1.32 1 2 C0.505 2.94875 0.01 3.8975 -0.5 4.875 C-2.13694402 8.28530004 -2.00762752 8.6412416 -1 12 C-1.4375 14.1875 -1.4375 14.1875 -3 16 C-7.94977964 17.11769218 -10.54956974 17.57446414 -15 15 C-14.45730469 14.54109375 -13.91460937 14.0821875 -13.35546875 13.609375 C-12.64003906 12.99578125 -11.92460937 12.3821875 -11.1875 11.75 C-10.47980469 11.14671875 -9.77210938 10.5434375 -9.04296875 9.921875 C-6.94002444 8.06082782 -6.94002444 8.06082782 -5.36328125 5.765625 C-4.91339844 5.18296875 -4.46351563 4.6003125 -4 4 C-3.34 4 -2.68 4 -2 4 C-1.34 2.68 -0.68 1.36 0 0 Z " fill="#BDB8C1" transform="translate(321,287)"/>
<path d="M0 0 C1.859375 0.24609375 1.859375 0.24609375 4 1 C5.265625 2.84765625 5.265625 2.84765625 6.25 5.0625 C6.58515625 5.79597656 6.9203125 6.52945312 7.265625 7.28515625 C7.50796875 7.85105469 7.7503125 8.41695313 8 9 C7.01 9.495 7.01 9.495 6 10 C6 9.34 6 8.68 6 8 C5.01 8.495 5.01 8.495 4 9 C3.34786708 11.02463255 3.34786708 11.02463255 3 13 C1.68 12.67 0.36 12.34 -1 12 C-1 11.01 -1 10.02 -1 9 C-1.66 9 -2.32 9 -3 9 C-3.33 9.99 -3.66 10.98 -4 12 C-4.33 11.34 -4.66 10.68 -5 10 C-4.00390625 7.6171875 -4.00390625 7.6171875 -2.5625 4.875 C-1.85287109 3.50988281 -1.85287109 3.50988281 -1.12890625 2.1171875 C-0.75636719 1.41851562 -0.38382813 0.71984375 0 0 Z " fill="#EFE8F0" transform="translate(227,361)"/>
<path d="M0 0 C1.9375 0.0625 1.9375 0.0625 4 1 C5.25 4.0625 5.25 4.0625 6 7 C6.66 7 7.32 7 8 7 C7.67 7.99 7.34 8.98 7 10 C6.01 9.67 5.02 9.34 4 9 C3.34 12.63 2.68 16.26 2 20 C1.34 19.67 0.68 19.34 0 19 C-1.3455359 13.31320675 -1.44127365 6.81442929 -1 1 C-0.67 0.67 -0.34 0.34 0 0 Z " fill="#F1ECEF" transform="translate(244,361)"/>
<path d="M0 0 C1.32 0 2.64 0 4 0 C4 0.66 4 1.32 4 2 C5.32 2 6.64 2 8 2 C7.67 4.31 7.34 6.62 7 9 C4.36 9.33 1.72 9.66 -1 10 C-1.99 7.69 -2.98 5.38 -4 3 C-2.68 2.67 -1.36 2.34 0 2 C0 1.34 0 0.68 0 0 Z " fill="#ABA5B3" transform="translate(287,399)"/>
<path d="M0 0 C3.79518955 0.25876292 5.54141964 0.5538137 8.3125 3.25 C10.03059012 6.04985057 10.83671589 7.73431782 11 11 C10.0625 13.8125 10.0625 13.8125 9 16 C8.67 16 8.34 16 8 16 C7.67 13.03 7.34 10.06 7 7 C6.67 9.64 6.34 12.28 6 15 C5.34 15 4.68 15 4 15 C4.226875 14.278125 4.45375 13.55625 4.6875 12.8125 C5.22423767 9.95159198 5.22423767 9.95159198 3.9375 7.25 C2.12180242 4.7067985 2.12180242 4.7067985 -1.1875 4.1875 C-2.5796875 4.0946875 -2.5796875 4.0946875 -4 4 C-4 7.3 -4 10.6 -4 14 C-4.33 14 -4.66 14 -5 14 C-5 10.37 -5 6.74 -5 3 C-2.36 2.67 0.28 2.34 3 2 C2.01 1.34 1.02 0.68 0 0 Z " fill="#A097A3" transform="translate(363,362)"/>
<path d="M0 0 C1 4.875 1 4.875 1 6 C3.97 6.495 3.97 6.495 7 7 C7 7.66 7 8.32 7 9 C-0.07403834 8.6784528 -5.97386577 5.58336373 -12 2 C-12.33 1.34 -12.66 0.68 -13 0 C-8.34462607 -0.83796731 -4.62921525 -1.0161692 0 0 Z " fill="#9F9EA3" transform="translate(215,249)"/>
<path d="M0 0 C1.98 0 3.96 0 6 0 C6.5345256 1.24420647 7.05208611 2.49570936 7.5625 3.75 C7.85253906 4.44609375 8.14257812 5.1421875 8.44140625 5.859375 C9.07831803 8.30012784 8.80248831 9.6403655 8 12 C6.68 11.34 5.36 10.68 4 10 C3.67 10.66 3.34 11.32 3 12 C-0.42857143 4.71428571 -0.42857143 4.71428571 0 0 Z " fill="#B1A3B4" transform="translate(173,361)"/>
<path d="M0 0 C-0.61746094 0.28617187 -1.23492187 0.57234375 -1.87109375 0.8671875 C-4.15578296 1.94343491 -4.15578296 1.94343491 -6.0625 4.125 C-8 6 -8 6 -11 6 C-11.33 6.66 -11.66 7.32 -12 8 C-12.66 7.67 -13.32 7.34 -14 7 C-16.60931266 7.89363605 -16.60931266 7.89363605 -19 9 C-19.33 7.68 -19.66 6.36 -20 5 C-19.01 4.67 -18.02 4.34 -17 4 C-16.67 3.34 -16.34 2.68 -16 2 C-10.5867534 -0.02996747 -5.74116324 -0.23433319 0 0 Z " fill="#EAE3EA" transform="translate(232,119)"/>
<path d="M0 0 C5.75 0.875 5.75 0.875 8 2 C8 2.66 8 3.32 8 4 C7.34 4 6.68 4 6 4 C6 5.32 6 6.64 6 8 C3.69 8.33 1.38 8.66 -1 9 C-1.99 7.02 -2.98 5.04 -4 3 C-2.68 2.67 -1.36 2.34 0 2 C0 1.34 0 0.68 0 0 Z " fill="#B5A7B6" transform="translate(207,399)"/>
<path d="M0 0 C0 0.66 0 1.32 0 2 C1.32 2 2.64 2 4 2 C4 2.66 4 3.32 4 4 C3.34 4 2.68 4 2 4 C1.67 5.98 1.34 7.96 1 10 C-1.31 9.34 -3.62 8.68 -6 8 C-6.33 6.35 -6.66 4.7 -7 3 C-3.375 0 -3.375 0 0 0 Z " fill="#C5BECC" transform="translate(250,399)"/>
<path d="M0 0 C0.33 0 0.66 0 1 0 C1 6.27 1 12.54 1 19 C4.96 19 8.92 19 13 19 C13 18.34 13 17.68 13 17 C10.69 16.67 8.38 16.34 6 16 C6 15.67 6 15.34 6 15 C8.97 15.33 11.94 15.66 15 16 C15 17.65 15 19.3 15 21 C12.68756208 21.02685412 10.3750373 21.04632841 8.0625 21.0625 C6.77472656 21.07410156 5.48695313 21.08570313 4.16015625 21.09765625 C1 21 1 21 0 20 C-0.08669432 18.5112814 -0.10703494 17.018555 -0.09765625 15.52734375 C-0.09443359 14.62822266 -0.09121094 13.72910156 -0.08789062 12.80273438 C-0.07951172 11.85720703 -0.07113281 10.91167969 -0.0625 9.9375 C-0.05798828 8.98810547 -0.05347656 8.03871094 -0.04882812 7.06054688 C-0.0370011 4.70696935 -0.02052025 2.35351523 0 0 Z " fill="#87838C" transform="translate(335,362)"/>
<path d="M0 0 C6.92 0 6.92 0 11 3 C11 3.33 11 3.66 11 4 C8.03 4 5.06 4 2 4 C2 8.95 2 13.9 2 19 C1.34 19.33 0.68 19.66 0 20 C0 13.4 0 6.8 0 0 Z " fill="#E2DDE2" transform="translate(356,361)"/>
<path d="M0 0 C0.33 1.32 0.66 2.64 1 4 C-0.98 4.99 -0.98 4.99 -3 6 C-3 6.66 -3 7.32 -3 8 C-2.34 8 -1.68 8 -1 8 C-1 9.32 -1 10.64 -1 12 C-2.11375 12.103125 -3.2275 12.20625 -4.375 12.3125 C-5.57125 12.539375 -6.7675 12.76625 -8 13 C-8.66 13.99 -9.32 14.98 -10 16 C-10 14.35 -10 12.7 -10 11 C-7.36 11 -4.72 11 -2 11 C-2 10.34 -2 9.68 -2 9 C-4.64 8.67 -7.28 8.34 -10 8 C-10.33 6.35 -10.66 4.7 -11 3 C-7.37 3 -3.74 3 0 3 C0 2.01 0 1.02 0 0 Z " fill="#807B8A" transform="translate(349,362)"/>
<path d="M0 0 C3.63 0 7.26 0 11 0 C10.67 0.99 10.34 1.98 10 3 C7.69 3 5.38 3 3 3 C3.020625 3.94875 3.04125 4.8975 3.0625 5.875 C3 9 3 9 2 11 C1.77721336 12.36972529 1.5931895 13.74603588 1.4375 15.125 C1.2209375 17.043125 1.2209375 17.043125 1 19 C0.67 19 0.34 19 0 19 C0 12.73 0 6.46 0 0 Z " fill="#FAF1F5" transform="translate(131,362)"/>
<path d="M0 0 C1.875 0.25 1.875 0.25 4 1 C5.44147299 3.27600998 6.14445422 5.43336266 7 8 C6.34 8.66 5.68 9.32 5 10 C2.47442523 9.75558954 1.2147398 9.17639341 -0.75 7.5625 C-2 6 -2 6 -2 4 C-2.66 4 -3.32 4 -4 4 C-4 5.65 -4 7.3 -4 9 C-4.33 9 -4.66 9 -5 9 C-5 6.36 -5 3.72 -5 1 C-2.5625 1.375 -2.5625 1.375 0 2 C0.33 2.66 0.66 3.32 1 4 C1.33 3.01 1.66 2.02 2 1 C1.34 0.67 0.68 0.34 0 0 Z " fill="#B2AFB5" transform="translate(140,373)"/>
<path d="M0 0 C1.32 0 2.64 0 4 0 C4.36934673 6.52512563 4.36934673 6.52512563 2.6875 8.6875 C2.130625 9.120625 1.57375 9.55375 1 10 C-0.01800576 11.31963709 -1.02248365 12.65009646 -2 14 C-2 13.34 -2 12.68 -2 12 C-2.66 12 -3.32 12 -4 12 C-3.45660208 7.43545749 -2.20536179 4.0271824 0 0 Z " fill="#F2EDF2" transform="translate(287,361)"/>
<path d="M0 0 C0.66 0.33 1.32 0.66 2 1 C1.505 1.763125 1.01 2.52625 0.5 3.3125 C-1.24368308 5.92363751 -1.24368308 5.92363751 -1 9 C-9.42857143 10.42857143 -9.42857143 10.42857143 -14 8 C-11.56163291 5.56163291 -9.07619256 4.36908302 -6 2.8125 C-4.9275 2.26207031 -3.855 1.71164062 -2.75 1.14453125 C-1.38875 0.57798828 -1.38875 0.57798828 0 0 Z " fill="#ACABB4" transform="translate(296,309)"/>
<path d="M0 0 C0.99 0.33 1.98 0.66 3 1 C2.54625 1.515625 2.0925 2.03125 1.625 2.5625 C-0.21424332 5.0146714 -0.21424332 5.0146714 -0.8125 8.4375 C-2.34092582 13.02277746 -4.13927047 14.2303462 -8 17 C-8.65450987 11.76392104 -7.09690299 8.90953174 -4.38671875 4.63671875 C-3 3 -3 3 0 2 C0 1.34 0 0.68 0 0 Z " fill="#E0E0ED" transform="translate(312,196)"/>
<path d="M0 0 C1.32 0.66 2.64 1.32 4 2 C4 4.64 4 7.28 4 10 C3.01 10.495 3.01 10.495 2 11 C2 8.69 2 6.38 2 4 C1.690625 4.639375 1.38125 5.27875 1.0625 5.9375 C0 8 0 8 -1 9 C-4 9.125 -4 9.125 -7 9 C-8 8 -8 8 -8.0625 5.4375 C-8.041875 4.633125 -8.02125 3.82875 -8 3 C-6.865625 2.87625 -5.73125 2.7525 -4.5625 2.625 C-3.386875 2.41875 -2.21125 2.2125 -1 2 C-0.67 1.34 -0.34 0.68 0 0 Z M-6 5 C-5.67 5.66 -5.34 6.32 -5 7 C-4.01 7 -3.02 7 -2 7 C-2 6.34 -2 5.68 -2 5 C-3.32 5 -4.64 5 -6 5 Z " fill="#C0B9BD" transform="translate(142,362)"/>
<path d="M0 0 C2.75028114 1.29107084 5.50023373 2.58283341 8.25 3.875 C9.02730469 4.23980469 9.80460938 4.60460937 10.60546875 4.98046875 C11.35957031 5.33496094 12.11367187 5.68945312 12.890625 6.0546875 C13.92751465 6.54171143 13.92751465 6.54171143 14.98535156 7.03857422 C17.00299865 8.00143101 19.00358243 8.99396213 21 10 C20.34 10 19.68 10 19 10 C18.67 10.66 18.34 11.32 18 12 C15.525 11.505 15.525 11.505 13 11 C12.67 9.68 12.34 8.36 12 7 C11.67 7.66 11.34 8.32 11 9 C6.25 8.25 6.25 8.25 4 6 C3.30251417 4.68252676 2.63040043 3.35085807 2 2 C1.34 2 0.68 2 0 2 C0 1.34 0 0.68 0 0 Z " fill="#A89DAE" transform="translate(207,308)"/>
<path d="M0 0 C0.99 0 1.98 0 3 0 C3.4125 0.9075 3.825 1.815 4.25 2.75 C5.78995008 6.01915411 5.78995008 6.01915411 8.1875 8.0625 C10 10 10 10 10.4375 12.625 C10.293125 13.40875 10.14875 14.1925 10 15 C9.01 15.66 8.02 16.32 7 17 C5.82866942 14.54379149 4.66278278 12.08525083 3.5 9.625 C3.16613281 8.92632812 2.83226562 8.22765625 2.48828125 7.5078125 C0 2.2265625 0 2.2265625 0 0 Z " fill="#A39CAC" transform="translate(262,282)"/>
<path d="M0 0 C0.66 0.66 1.32 1.32 2 2 C-2.03523352 6.81123996 -6.04467233 11.13242719 -11 15 C-11.66 14.34 -12.32 13.68 -13 13 C-12.34 12.67 -11.68 12.34 -11 12 C-11 10.68 -11 9.36 -11 8 C-10.34 7.34 -9.68 6.68 -9 6 C-8.34 6.66 -7.68 7.32 -7 8 C-6.67 7.34 -6.34 6.68 -6 6 C-5.01 6 -4.02 6 -3 6 C-3 4.68 -3 3.36 -3 2 C-2.01 1.34 -1.02 0.68 0 0 Z " fill="#717173" transform="translate(333,300)"/>
<path d="M0 0 C2.94956528 1.36944102 5.52468811 2.87830409 8 5 C8 5.66 8 6.32 8 7 C8.804375 7.28875 9.60875 7.5775 10.4375 7.875 C13 9 13 9 14 11 C13.34 11.66 12.68 12.32 12 13 C12 13.66 12 14.32 12 15 C11.34 15 10.68 15 10 15 C9.6596875 13.8553125 9.6596875 13.8553125 9.3125 12.6875 C7.70998383 9.40615736 6.2382356 8.57962712 3 7 C2.01 6.67 1.02 6.34 0 6 C0 4 0 2 0 0 Z " fill="#9C989E" transform="translate(192,297)"/>
<path d="M0 0 C0 1.32 0 2.64 0 4 C-1.32 4 -2.64 4 -4 4 C-4 3.34 -4 2.68 -4 2 C-4.89307861 2.01571045 -4.89307861 2.01571045 -5.80419922 2.03173828 C-8.49442343 2.07323949 -11.18458037 2.09930704 -13.875 2.125 C-15.28072266 2.15013672 -15.28072266 2.15013672 -16.71484375 2.17578125 C-18.05869141 2.18544922 -18.05869141 2.18544922 -19.4296875 2.1953125 C-20.25710449 2.20578613 -21.08452148 2.21625977 -21.93701172 2.22705078 C-24 2 -24 2 -26 0 C-17.2478303 -1.36752652 -8.77387981 -0.70757095 0 0 Z " fill="#E7E7EF" transform="translate(256,173)"/>
<path d="M0 0 C2.375 0.875 2.375 0.875 5 3 C6.05246447 6.28432381 6.57050185 9.58324609 7 13 C6.01 13 5.02 13 4 13 C3.67 11.68 3.34 10.36 3 9 C1.68 9 0.36 9 -1 9 C-1 8.34 -1 7.68 -1 7 C-0.34 7 0.32 7 1 7 C0.67 4.69 0.34 2.38 0 0 Z " fill="#ECEBEC" transform="translate(291,368)"/>
<path d="M0 0 C-2.64738916 1.4606285 -3.89448334 2 -7 2 C-7.33 3.32 -7.66 4.64 -8 6 C-7.34 5.67 -6.68 5.34 -6 5 C-4.00039988 4.960008 -1.99952758 4.95653201 0 5 C0 5.33 0 5.66 0 6 C-1.98 6.66 -3.96 7.32 -6 8 C-6.33 9.98 -6.66 11.96 -7 14 C-7.66 14 -8.32 14 -9 14 C-9.33 11.36 -9.66 8.72 -10 6 C-10.66 6 -11.32 6 -12 6 C-10.9802352 3.21882328 -10.33608762 2.18166898 -7.6875 0.75 C-4.98166314 -0.00511726 -2.79292118 -0.1595955 0 0 Z " fill="#ACA2A8" transform="translate(119,360)"/>
<path d="M0 0 C0.99 0.66 1.98 1.32 3 2 C3 2.66 3 3.32 3 4 C-1.76307437 4.95261487 -6.1666528 5.08333357 -11 5 C-10.6875 3.0625 -10.6875 3.0625 -10 1 C-6.47005387 -0.17664871 -3.70544587 -0.19850603 0 0 Z " fill="#D8CDD9" transform="translate(122,361)"/>
<path d="M0 0 C4.29 0 8.58 0 13 0 C13 1.32 13 2.64 13 4 C7.06 4.495 7.06 4.495 1 5 C0.67 3.35 0.34 1.7 0 0 Z " fill="#C1BACF" transform="translate(336,361)"/>
<path d="M0 0 C0.99 0 1.98 0 3 0 C3.6875 2.3125 3.6875 2.3125 4 5 C2.75 6.4375 2.75 6.4375 1 8 C-0.04622875 9.97620986 -1.05439935 11.9737129 -2 14 C-5 13 -5 13 -6.25 10.6875 C-7.0275526 7.90126985 -6.98726527 6.66561622 -6 4 C-3.8480563 7.22791555 -3.79913557 8.28400809 -4 12 C-3.34 12 -2.68 12 -2 12 C-1.34 8.04 -0.68 4.08 0 0 Z " fill="#C0BBC0" transform="translate(184,369)"/>
<path d="M0 0 C1.65 0 3.3 0 5 0 C6.13764351 4.26616316 7 7.56486311 7 12 C5.1875 11.4375 5.1875 11.4375 3 10 C1.21313946 6.49009536 0 3.95875396 0 0 Z " fill="#EEE5ED" transform="translate(201,362)"/>
<path d="M0 0 C1.7634375 -0.02126953 1.7634375 -0.02126953 3.5625 -0.04296875 C7.03613815 0.1899229 9.76451979 0.93966998 13 2.1875 C11 4.1875 11 4.1875 7.875 4.3125 C6.92625 4.27125 5.9775 4.23 5 4.1875 C5 3.5275 5 2.8675 5 2.1875 C4.31550781 2.36152344 3.63101563 2.53554687 2.92578125 2.71484375 C-0.45475722 3.26096545 -3.40550643 3.05972669 -6.8125 2.75 C-7.97394531 2.64816406 -9.13539063 2.54632813 -10.33203125 2.44140625 C-11.21246094 2.35761719 -12.09289062 2.27382812 -13 2.1875 C-13 1.8575 -13 1.5275 -13 1.1875 C-8.62429541 0.35371483 -4.45310587 0.02441396 0 0 Z " fill="#B8B0CB" transform="translate(252,114.8125)"/>
<path d="M0 0 C5.28 0 10.56 0 16 0 C16 0.99 16 1.98 16 3 C10.47032059 3.71033431 5.50016964 4.30267176 0 3 C0 2.01 0 1.02 0 0 Z " fill="#F4F0F7" transform="translate(264,362)"/>
<path d="M0 0 C0.15082031 0.6084375 0.30164063 1.216875 0.45703125 1.84375 C0.84904277 3.40051517 1.26182755 4.9521002 1.6875 6.5 C2 9 2 9 1.08984375 10.734375 C-0.33656211 13.69966317 -0.66969493 16.4978209 -1.125 19.75 C-1.29257813 20.92046875 -1.46015625 22.0909375 -1.6328125 23.296875 C-1.75398437 24.18890625 -1.87515625 25.0809375 -2 26 C-2.33 26 -2.66 26 -3 26 C-3.30659554 16.84755529 -3.49409003 8.65203245 0 0 Z " fill="#A9A0B2" transform="translate(189,198)"/>
<path d="M0 0 C1.60080151 4.00200378 0.29279692 7.04556236 -1 11 C-1.99 11 -2.98 11 -4 11 C-4.061875 12.051875 -4.12375 13.10375 -4.1875 14.1875 C-5.13408616 18.6291735 -6.59156258 20.11593757 -10 23 C-10 19.82107921 -9.5510437 18.80681926 -8.06640625 16.09375 C-7.66486328 15.34996094 -7.26332031 14.60617188 -6.84960938 13.83984375 C-6.42486328 13.06769531 -6.00011719 12.29554688 -5.5625 11.5 C-4.72845197 9.96984757 -3.89633924 8.43863827 -3.06640625 6.90625 C-2.69459229 6.22884766 -2.32277832 5.55144531 -1.93969727 4.85351562 C-0.87120219 2.85849388 -0.87120219 2.85849388 0 0 Z " fill="#C4B9CF" transform="translate(337,144)"/>
<path d="M0 0 C0.53625 0.66 1.0725 1.32 1.625 2 C3.87763478 4.27795261 3.87763478 4.27795261 7.0625 4.3125 C10.05700861 4.09993931 10.05700861 4.09993931 13 3 C14.32 3.99 15.64 4.98 17 6 C9.74 6 2.48 6 -5 6 C-3.74821404 3.49642808 -2.00018842 1.93566621 0 0 Z " fill="#E7EAEB" transform="translate(244,128)"/>
<path d="M0 0 C2.64 0.33 5.28 0.66 8 1 C6.68 2.32 5.36 3.64 4 5 C4.66 5.33 5.32 5.66 6 6 C5.67 7.32 5.34 8.64 5 10 C4.34 8.68 3.68 7.36 3 6 C1.18757677 10.0188515 -0.33501617 13.61110675 -1 18 C-1.33 18 -1.66 18 -2 18 C-2.05399736 16.54207116 -2.09279177 15.08357288 -2.125 13.625 C-2.15980469 12.40683594 -2.15980469 12.40683594 -2.1953125 11.1640625 C-2 9 -2 9 0 7 C0.16677282 3.41656024 0.16677282 3.41656024 0 0 Z " fill="#ACA4AF" transform="translate(197,360)"/>
<path d="M0 0 C-0.969375 0.2475 -1.93875 0.495 -2.9375 0.75 C-3.948125 1.1625 -4.95875 1.575 -6 2 C-6.96877057 4.03243548 -6.96877057 4.03243548 -7 6 C-7.66 5.67 -8.32 5.34 -9 5 C-9 4.34 -9 3.68 -9 3 C-9.99 3.33 -10.98 3.66 -12 4 C-14.33299825 4.03954234 -16.66708189 4.04401732 -19 4 C-19 3.67 -19 3.34 -19 3 C-17.35 2.67 -15.7 2.34 -14 2 C-15.32 1.34 -16.64 0.68 -18 0 C-15.56401909 -0.38951724 -13.12745206 -0.76203193 -10.6875 -1.125 C-9.99720703 -1.23714844 -9.30691406 -1.34929687 -8.59570312 -1.46484375 C-3.33984375 -2.2265625 -3.33984375 -2.2265625 0 0 Z " fill="#AFA3B4" transform="translate(278,320)"/>
<path d="M0 0 C0.66 0.33 1.32 0.66 2 1 C2 3.64 2 6.28 2 9 C2.99 9.33 3.98 9.66 5 10 C4.401875 10.144375 3.80375 10.28875 3.1875 10.4375 C1.43849596 10.8872439 -0.28677023 11.42892341 -2 12 C-3.35111663 4.19354839 -3.35111663 4.19354839 -2 1 C-1.34 0.67 -0.68 0.34 0 0 Z " fill="#EEE6EC" transform="translate(108,365)"/>
<path d="M0 0 C0.22429687 0.64453125 0.44859375 1.2890625 0.6796875 1.953125 C1.82889456 4.24388852 1.82889456 4.24388852 4.3828125 4.609375 C5.28773438 4.65578125 6.19265625 4.7021875 7.125 4.75 C8.03507813 4.80671875 8.94515625 4.8634375 9.8828125 4.921875 C10.58148438 4.94765625 11.28015625 4.9734375 12 5 C12 5.33 12 5.66 12 6 C8.97265625 6.24414062 8.97265625 6.24414062 5.9453125 6.48828125 C3.60480784 6.87393036 3.60480784 6.87393036 2 10 C0.35 9.67 -1.3 9.34 -3 9 C-2.30058404 5.85262818 -1.23921302 2.97411124 0 0 Z " fill="#A49DA3" transform="translate(221,373)"/>
<path d="M0 0 C3.63 0 7.26 0 11 0 C10.67 0.99 10.34 1.98 10 3 C7.69 2.67 5.38 2.34 3 2 C2.67 2.99 2.34 3.98 2 5 C1.05273046 6.69719127 0.05771739 8.36935236 -1 10 C-1.33 10 -1.66 10 -2 10 C-2.24059853 5.78952566 -1.683989 4.2099725 0 0 Z " fill="#F2EAF1" transform="translate(153,362)"/>
<path d="M0 0 C1.2077558 3.62326739 0.54311128 4.64146369 -1 8 C-0.34 8 0.32 8 1 8 C1 6.68 1 5.36 1 4 C4.63 4 8.26 4 12 4 C12 4.66 12 5.32 12 6 C9.03 5.67 6.06 5.34 3 5 C2.67 6.32 2.34 7.64 2 9 C0.35 9.33 -1.3 9.66 -3 10 C-3.75 8.375 -3.75 8.375 -4 6 C-2.0625 2.75 -2.0625 2.75 0 0 Z " fill="#848087" transform="translate(389,373)"/>
<path d="M0 0 C1.98 0.99 1.98 0.99 4 2 C4.99549067 5.2708979 5.32868536 7.16733041 4.0625 10.375 C3.711875 10.91125 3.36125 11.4475 3 12 C2.01 11.67 1.02 11.34 0 11 C0 7.37 0 3.74 0 0 Z " fill="#F5EEF3" transform="translate(166,364)"/>
<path d="M0 0 C2.16926659 3.25389988 2.24080049 4.13395957 2.1953125 7.88671875 C2.18886719 8.82451172 2.18242187 9.76230469 2.17578125 10.72851562 C2.15902344 11.70498047 2.14226562 12.68144531 2.125 13.6875 C2.11597656 14.67556641 2.10695312 15.66363281 2.09765625 16.68164062 C2.0740843 19.12133765 2.04118022 21.56054697 2 24 C-1.24612903 20.09125354 -1.35117615 17.6668368 -1.25 12.5625 C-1.23453125 11.26441406 -1.2190625 9.96632812 -1.203125 8.62890625 C-1.03505051 5.62619092 -0.69673711 2.91618194 0 0 Z " fill="#C4B9CA" transform="translate(142,226)"/>
<path d="M0 0 C0.99 0 1.98 0 3 0 C2.67 1.98 2.34 3.96 2 6 C1.01 6 0.02 6 -1 6 C-1.2475 6.804375 -1.495 7.60875 -1.75 8.4375 C-3 11 -3 11 -5.125 11.8125 C-5.74375 11.874375 -6.3625 11.93625 -7 12 C-5.52410328 7.57230983 -3.26930159 3.3663135 0 0 Z " fill="#DDCAE0" transform="translate(161,162)"/>
<path d="M0 0 C0 1.32 0 2.64 0 4 C-0.66 4.66 -1.32 5.32 -2 6 C-2.99 6 -3.98 6 -5 6 C-5.33 6.66 -5.66 7.32 -6 8 C-6 7.01 -6 6.02 -6 5 C-6.66 4.67 -7.32 4.34 -8 4 C-8 3.01 -8 2.02 -8 1 C-5.29120665 -0.35439668 -2.99066732 -0.06501451 0 0 Z " fill="#AEA6AE" transform="translate(386,119)"/>
<path d="M0 0 C3.5625 0.125 3.5625 0.125 5.5625 1.125 C5.2325 2.115 4.9025 3.105 4.5625 4.125 C2.49609375 4.85546875 2.49609375 4.85546875 0 5.3125 C-0.82628906 5.47105469 -1.65257812 5.62960938 -2.50390625 5.79296875 C-3.46103516 5.95732422 -3.46103516 5.95732422 -4.4375 6.125 C-4.480221 4.45888095 -4.47813832 2.79117115 -4.4375 1.125 C-3.4375 0.125 -3.4375 0.125 0 0 Z " fill="#DFDDE6" transform="translate(284.4375,120.875)"/>
<path d="M0 0 C0.33 0 0.66 0 1 0 C1 2.31 1 4.62 1 7 C0.34 7 -0.32 7 -1 7 C-1.33 8.65 -1.66 10.3 -2 12 C-2.99 12 -3.98 12 -5 12 C-5 13.65 -5 15.3 -5 17 C-5.99 17 -6.98 17 -8 17 C-6.3341708 10.83643195 -3.12194714 5.51740344 0 0 Z " fill="#CDC2D6" transform="translate(323,171)"/>
<path d="M0 0 C2.40921705 2.40921705 3.53812156 4.94334509 5 8 C5.66 7.34 6.32 6.68 7 6 C6.67 7.98 6.34 9.96 6 12 C3.69 12.33 1.38 12.66 -1 13 C-1 12.34 -1 11.68 -1 11 C-0.01 11 0.98 11 2 11 C1.484375 10.113125 0.96875 9.22625 0.4375 8.3125 C-1.0868937 4.79976669 -1.14947895 3.55293493 0 0 Z " fill="#9F9EA8" transform="translate(273,251)"/>
<path d="M0 0 C-2.46474039 2.46474039 -5.01173105 4.20703863 -8 6 C-9.32 6 -10.64 6 -12 6 C-12 5.34 -12 4.68 -12 4 C-11.34 4 -10.68 4 -10 4 C-9.87625 3.360625 -9.7525 2.72125 -9.625 2.0625 C-9.41875 1.381875 -9.2125 0.70125 -9 0 C-5.93109813 -1.53445094 -3.29905734 -0.54984289 0 0 Z " fill="#D9D8DF" transform="translate(214,179)"/>
<path d="M0 0 C1.98 0.66 3.96 1.32 6 2 C5.360625 2.12375 4.72125 2.2475 4.0625 2.375 C3.381875 2.58125 2.70125 2.7875 2 3 C1.67 3.66 1.34 4.32 1 5 C0.67 3.35 0.34 1.7 0 0 Z M-5 3 C0.445 4.485 0.445 4.485 6 6 C6.33 5.67 6.66 5.34 7 5 C8.66617115 4.95936168 10.33388095 4.957279 12 5 C11 6.5 11 6.5 9 8 C4.3989917 8.52798456 1.42321301 8.61585003 -2.5 6.0625 C-3.325 5.381875 -4.15 4.70125 -5 4 C-5 3.67 -5 3.34 -5 3 Z " fill="#87828A" transform="translate(156,375)"/>
<path d="M0 0 C0.66 0.33 1.32 0.66 2 1 C2.1875 3.3125 2.1875 3.3125 2 6 C1.02149805 7.02104551 0.02019573 8.0206121 -1 9 C-1.72197162 11.60611077 -1.72197162 11.60611077 -2 14 C-3.32 14 -4.64 14 -6 14 C-5.38349808 9.99273754 -3.21423629 7.32135444 -1 4 C-0.23060319 1.77397385 -0.23060319 1.77397385 0 0 Z " fill="#F1EAED" transform="translate(213,365)"/>
<path d="M0 0 C0.33 0.99 0.66 1.98 1 3 C1.66 3 2.32 3 3 3 C3.33 2.01 3.66 1.02 4 0 C5.3778771 3.13153887 4.90076044 4.28779473 3.75 7.625 C2 11 2 11 -1 13 C-2.06775224 11.03533587 -3.06553465 9.03144641 -4 7 C-3.67 6.34 -3.34 5.68 -3 5 C-1.68 5.99 -0.36 6.98 1 8 C0.67 5.36 0.34 2.72 0 0 Z " fill="#A69FA4" transform="translate(207,366)"/>
<path d="M0 0 C0.33 0 0.66 0 1 0 C1 3.3 1 6.6 1 10 C0.01 10 -0.98 10 -2 10 C-1.67 11.65 -1.34 13.3 -1 15 C-2.32 14.01 -3.64 13.02 -5 12 C-4.49396008 9.83125748 -4.00016187 8.00032373 -3 6 C-3.66 6 -4.32 6 -5 6 C-5.33 4.68 -5.66 3.36 -6 2 C-5.01 2.495 -5.01 2.495 -4 3 C-4 3.66 -4 4.32 -4 5 C-3.01 5.33 -2.02 5.66 -1 6 C-0.67 4.02 -0.34 2.04 0 0 Z " fill="#AEA7B5" transform="translate(255,362)"/>
<path d="M0 0 C0.87840996 3.09720845 0.99435406 4.90645403 0 8 C-0.66 8 -1.32 8 -2 8 C-2 9.32 -2 10.64 -2 12 C-2.66 12 -3.32 12 -4 12 C-3.690625 12.928125 -3.690625 12.928125 -3.375 13.875 C-3.25125 14.57625 -3.1275 15.2775 -3 16 C-3.66 16.66 -4.32 17.32 -5 18 C-5.99 18 -6.98 18 -8 18 C-6.443154 13.98696492 -4.68861143 10.0907072 -2.875 6.1875 C-2.33617187 5.02605469 -1.79734375 3.86460937 -1.2421875 2.66796875 C-0.62730469 1.34732422 -0.62730469 1.34732422 0 0 Z " fill="#B29CCB" transform="translate(333,264)"/>
<path d="M0 0 C2 0 2 0 3.4375 1.375 C3.953125 1.91125 4.46875 2.4475 5 3 C5.99 3.66 6.98 4.32 8 5 C8.1875 7.625 8.1875 7.625 8 10 C8.99 10 9.98 10 11 10 C11 10.99 11 11.98 11 13 C7.63512219 11.59127675 5.94290543 10.00344528 3.8125 7.0625 C3.30332031 6.37285156 2.79414063 5.68320313 2.26953125 4.97265625 C1 3 1 3 0 0 Z " fill="#9B929E" transform="translate(191,236)"/>
<path d="M0 0 C0.33 0 0.66 0 1 0 C1 6.27 1 12.54 1 19 C1.66 19 2.32 19 3 19 C3 17.35 3 15.7 3 14 C3.66 13.67 4.32 13.34 5 13 C5 15.31 5 17.62 5 20 C3.0625 20.5625 3.0625 20.5625 1 21 C0 20 0 20 -0.11352539 18.05053711 C-0.10567017 16.8015564 -0.10567017 16.8015564 -0.09765625 15.52734375 C-0.09443359 14.62822266 -0.09121094 13.72910156 -0.08789062 12.80273438 C-0.07951172 11.85720703 -0.07113281 10.91167969 -0.0625 9.9375 C-0.05798828 8.98810547 -0.05347656 8.03871094 -0.04882812 7.06054688 C-0.0370011 4.70696935 -0.02052025 2.35351523 0 0 Z " fill="#3E3E4B" transform="translate(309,362)"/>
<path d="M0 0 C0.93423645 3.01031744 1.04449911 3.86650268 0 7 C1.32 7 2.64 7 4 7 C4 8.65 4 10.3 4 12 C2.68 11.67 1.36 11.34 0 11 C0 10.01 0 9.02 0 8 C-0.66 8 -1.32 8 -2 8 C-2.33 8.99 -2.66 9.98 -3 11 C-3.33 10.34 -3.66 9.68 -4 9 C-3.22265625 6.8359375 -3.22265625 6.8359375 -2.0625 4.375 C-1.68222656 3.55773437 -1.30195313 2.74046875 -0.91015625 1.8984375 C-0.60980469 1.27195312 -0.30945313 0.64546875 0 0 Z " fill="#ABA7AF" transform="translate(226,362)"/>
<path d="M0 0 C0.66 0.33 1.32 0.66 2 1 C1.67 1.66 1.34 2.32 1 3 C0.01 3.33 -0.98 3.66 -2 4 C-2 5.32 -2 6.64 -2 8 C-0.68 8 0.64 8 2 8 C2 9.65 2 11.3 2 13 C1.34 12.34 0.68 11.68 0 11 C-0.66 11.66 -1.32 12.32 -2 13 C-2 11.68 -2 10.36 -2 9 C-3.98 9.99 -3.98 9.99 -6 11 C-4.55662437 7.11398869 -2.98188088 2.98188088 0 0 Z " fill="#8E8890" transform="translate(396,361)"/>
<path d="M0 0 C1.32 0.66 2.64 1.32 4 2 C1.36113346 6.2026393 -1.36440339 9.56638098 -5 13 C-5 12.01 -5 11.02 -5 10 C-4.34 10 -3.68 10 -3 10 C-3 8.02 -3 6.04 -3 4 C-2.01 3.67 -1.02 3.34 0 3 C0 2.01 0 1.02 0 0 Z " fill="#898C8E" transform="translate(340,288)"/>
<path d="M0 0 C0.66 0.33 1.32 0.66 2 1 C2.36880965 5.30277924 1.50637178 7.50898216 -1 11 C-2.29579647 12.36984198 -3.61992749 13.7151049 -5 15 C-3.97137215 9.55432314 -2.75385216 4.88182883 0 0 Z " fill="#E1DCE8" transform="translate(341,137)"/>
<path d="M0 0 C1.89213369 2.38573379 3.02391783 4.07175348 4 7 C3 8 3 8 0.5625 8.25 C-0.283125 8.1675 -1.12875 8.085 -2 8 C-2.66 7.01 -3.32 6.02 -4 5 C-7.56769552 4.26393501 -7.56769552 4.26393501 -11 4 C-7.91190305 2.23537317 -6.76687864 2 -3 2 C-2.67 3.32 -2.34 4.64 -2 6 C-1.01 6 -0.02 6 1 6 C0.67 4.02 0.34 2.04 0 0 Z " fill="#7A797B" transform="translate(297,375)"/>
<path d="M0 0 C2.97 0 5.94 0 9 0 C7.47793991 2.62901288 6.15634036 4.84365964 4 7 C2 5.75 2 5.75 0 4 C0 2.68 0 1.36 0 0 Z " fill="#E7E4EB" transform="translate(330,121)"/>
<path d="M0 0 C2 2 2 2 2 7 C5.3 7 8.6 7 12 7 C12 7.66 12 8.32 12 9 C8.04 9 4.08 9 0 9 C0 6.03 0 3.06 0 0 Z " fill="#E5E0E8" transform="translate(336,372)"/>
<path d="M0 0 C0.99 0.33 1.98 0.66 3 1 C5.00875442 0.72428861 7.01178687 0.39764263 9 0 C5.64416485 3.915141 1.71933638 6.0795774 -3 8 C-3.66 8 -4.32 8 -5 8 C-5 7.34 -5 6.68 -5 6 C-3.35 5.67 -1.7 5.34 0 5 C-0.2784375 4.0409375 -0.2784375 4.0409375 -0.5625 3.0625 C-0.706875 2.381875 -0.85125 1.70125 -1 1 C-0.67 0.67 -0.34 0.34 0 0 Z " fill="#817F84" transform="translate(304,321)"/>
<path d="M0 0 C6.6 0 13.2 0 20 0 C20 0.99 20 1.98 20 3 C17.5 4.6875 17.5 4.6875 15 6 C15 4.35 15 2.7 15 1 C10.05 1 5.1 1 0 1 C0 0.67 0 0.34 0 0 Z " fill="#A294A4" transform="translate(241,172)"/>
<path d="M0 0 C0.66 0 1.32 0 2 0 C0.77472971 4.05281712 -0.69880494 7.44360764 -3 11 C-4.32 9.68 -5.64 8.36 -7 7 C-6 5 -6 5 -4.0625 4.0625 C-1.68028507 3.04654078 -1.68028507 3.04654078 0 0 Z " fill="#A49AA8" transform="translate(280,301)"/>
<path d="M0 0 C0.99 0.33 1.98 0.66 3 1 C3 1.66 3 2.32 3 3 C4.32 2.67 5.64 2.34 7 2 C7 3.65 7 5.3 7 7 C6.34 6.67 5.68 6.34 5 6 C5 6.66 5 7.32 5 8 C5.66 8.66 6.32 9.32 7 10 C6.01 11.485 6.01 11.485 5 13 C4.16209211 11.21046815 3.32980604 9.41830305 2.5 7.625 C1.80390625 6.12839844 1.80390625 6.12839844 1.09375 4.6015625 C0 2 0 2 0 0 Z " fill="#98969F" transform="translate(256,269)"/>
<path d="M0 0 C0.33 0 0.66 0 1 0 C1.66 4.95 2.32 9.9 3 15 C1 14 -1 13 -3 12 C-2.01 8.04 -1.02 4.08 0 0 Z " fill="#87868A" transform="translate(163,235)"/>
<path d="M0 0 C2 1 2 1 2.8515625 3.06640625 C3.10679687 3.89011719 3.36203125 4.71382813 3.625 5.5625 C3.88539063 6.38878906 4.14578125 7.21507812 4.4140625 8.06640625 C4.60742188 8.70449219 4.80078125 9.34257812 5 10 C3.35 10.33 1.7 10.66 0 11 C-0.66 9.68 -1.32 8.36 -2 7 C-1.34 7 -0.68 7 0 7 C0 4.69 0 2.38 0 0 Z " fill="#A49EA9" transform="translate(235,372)"/>
<path d="M0 0 C0.66 0.33 1.32 0.66 2 1 C1.4070085 2.46291304 0.80016177 3.92021513 0.1875 5.375 C-0.14894531 6.18710937 -0.48539063 6.99921875 -0.83203125 7.8359375 C-2 10 -2 10 -5 12 C-5.66 10.68 -6.32 9.36 -7 8 C-5.68 7.67 -4.36 7.34 -3 7 C-2.814375 5.824375 -2.814375 5.824375 -2.625 4.625 C-2 2 -2 2 0 0 Z " fill="#99919D" transform="translate(214,371)"/>
<path d="M0 0 C1.32 1.65 2.64 3.3 4 5 C3.67 5.66 3.34 6.32 3 7 C2.01 6.34 1.02 5.68 0 5 C-0.1875 2.375 -0.1875 2.375 0 0 Z M-2 5 C-1.34 5 -0.68 5 0 5 C0 6.98 0 8.96 0 11 C-1.32 11 -2.64 11 -4 11 C-3.125 6.125 -3.125 6.125 -2 5 Z " fill="#AAA7A8" transform="translate(291,363)"/>
<path d="M0 0 C0.33 0.66 0.66 1.32 1 2 C0.0337499 4.01652194 -0.96708324 6.01679982 -2 8 C-2 8.66 -2 9.32 -2 10 C-4.31 10.33 -6.62 10.66 -9 11 C-8.21654285 9.82780457 -7.42297164 8.66236332 -6.625 7.5 C-6.18414062 6.8503125 -5.74328125 6.200625 -5.2890625 5.53125 C-4.86367188 5.0259375 -4.43828125 4.520625 -4 4 C-3.34 4 -2.68 4 -2 4 C-1.34 2.68 -0.68 1.36 0 0 Z " fill="#B0A6B6" transform="translate(321,287)"/>
<path d="M0 0 C0.66 0.99 1.32 1.98 2 3 C1.01 3.33 0.02 3.66 -1 4 C-1.825 5.010625 -2.65 6.02125 -3.5 7.0625 C-4.7375 8.5165625 -4.7375 8.5165625 -6 10 C-6.99 10 -7.98 10 -9 10 C-8.2628641 8.70094902 -7.50969444 7.41098878 -6.75 6.125 C-6.33234375 5.40570313 -5.9146875 4.68640625 -5.484375 3.9453125 C-3.84071924 1.79125838 -2.48432665 1.00859415 0 0 Z " fill="#E8DCE7" transform="translate(174,149)"/>
<path d="M0 0 C0.66 0 1.32 0 2 0 C1.979375 0.78375 1.95875 1.5675 1.9375 2.375 C1.81315937 4.98114961 1.81315937 4.98114961 3 7 C1.35 7 -0.3 7 -2 7 C-2 8.32 -2 9.64 -2 11 C-2.66 11 -3.32 11 -4 11 C-3.71758359 9.53984709 -3.42373386 8.08190207 -3.125 6.625 C-2.96257812 5.81289063 -2.80015625 5.00078125 -2.6328125 4.1640625 C-2 2 -2 2 0 0 Z " fill="#E1DCE2" transform="translate(392,370)"/>
<path d="M0 0 C4.64891954 -0.32434322 7.22406608 0.223578 11 3 C11 3.33 11 3.66 11 4 C9.54176788 4.0270043 8.08339325 4.04639787 6.625 4.0625 C5.81289063 4.07410156 5.00078125 4.08570313 4.1640625 4.09765625 C2 4 2 4 0 3 C0 2.01 0 1.02 0 0 Z " fill="#C5BACE" transform="translate(356,361)"/>
<path d="M0 0 C1.32 0 2.64 0 4 0 C4 0.66 4 1.32 4 2 C4.78375 1.979375 5.5675 1.95875 6.375 1.9375 C9 2 9 2 11 3 C11 3.66 11 4.32 11 5 C12.65 5.33 14.3 5.66 16 6 C16 6.66 16 7.32 16 8 C10.18738629 6.26017005 5.16830006 4.1889511 0 1 C0 0.67 0 0.34 0 0 Z " fill="#686669" transform="translate(194,324)"/>
<path d="M0 0 C0.99 0 1.98 0 3 0 C3.53341184 1.57914015 4.05125763 3.16354387 4.5625 4.75 C4.85253906 5.63171875 5.14257812 6.5134375 5.44140625 7.421875 C6.01697435 10.07834316 5.89248371 11.47031106 5 14 C4.15973604 12.23244474 3.32801278 10.46082737 2.5 8.6875 C2.0359375 7.70136719 1.571875 6.71523438 1.09375 5.69921875 C0 3 0 3 0 0 Z " fill="#AEA4B2" transform="translate(147,266)"/>
<path d="M0 0 C-0.33 2.97 -0.66 5.94 -1 9 C-2.32 9 -3.64 9 -5 9 C-4.34 7.02 -3.68 5.04 -3 3 C-4.65 2.67 -6.3 2.34 -8 2 C-4.77208445 -0.1519437 -3.71599191 -0.20086443 0 0 Z " fill="#BFA1DA" transform="translate(291,237)"/>
<path d="M0 0 C2.4375 0.375 2.4375 0.375 5 1 C5.33 1.66 5.66 2.32 6 3 C5.3125 5.0625 5.3125 5.0625 4 7 C1.875 7.75 1.875 7.75 0 8 C-1.43088528 5.13822943 -0.59991697 3.06624227 0 0 Z " fill="#CFD9E2" transform="translate(353,228)"/>
<path d="M0 0 C0.66 0 1.32 0 2 0 C3.28571429 8.42857143 3.28571429 8.42857143 2 13 C1.34 13 0.68 13 0 13 C0 8.71 0 4.42 0 0 Z " fill="#E1D9E0" transform="translate(310,368)"/>
<path d="M0 0 C0.68707031 0.0721875 1.37414062 0.144375 2.08203125 0.21875 C2.98308594 0.3115625 3.88414062 0.404375 4.8125 0.5 C5.70582031 0.5928125 6.59914062 0.685625 7.51953125 0.78125 C10.08305099 1.04392401 10.08305099 1.04392401 13 1 C15.1875 2.5 15.1875 2.5 17 4 C10.54107286 4.40368295 5.93891422 3.5915262 0 1 C0 0.67 0 0.34 0 0 Z " fill="#7B7A7C" transform="translate(211,332)"/>
<path d="M0 0 C1.02577148 0.00676758 1.02577148 0.00676758 2.07226562 0.01367188 C3.73571604 0.0253044 5.3991205 0.04323306 7.0625 0.0625 C7.0625 0.3925 7.0625 0.7225 7.0625 1.0625 C6.15757812 1.15337891 6.15757812 1.15337891 5.234375 1.24609375 C4.03554687 1.37177734 4.03554687 1.37177734 2.8125 1.5 C2.02359375 1.58121094 1.2346875 1.66242188 0.421875 1.74609375 C-1.89876254 2.00110618 -1.89876254 2.00110618 -3.9375 2.625 C-6.3405817 3.15067412 -8.25502014 2.94694586 -10.6875 2.625 C-11.88632813 2.47224609 -11.88632813 2.47224609 -13.109375 2.31640625 C-13.71265625 2.23261719 -14.3159375 2.14882812 -14.9375 2.0625 C-14.9375 1.7325 -14.9375 1.4025 -14.9375 1.0625 C-9.89895894 0.23038724 -5.1249338 -0.0453534 0 0 Z " fill="#AA9EB7" transform="translate(232.9375,171.9375)"/>
<path d="M0 0 C0.99 0 1.98 0 3 0 C3 0.99 3 1.98 3 3 C3.99 3 4.98 3 6 3 C5.67 5.31 5.34 7.62 5 10 C4.34 10 3.68 10 3 10 C2.690625 8.906875 2.38125 7.81375 2.0625 6.6875 C1.41662103 4.44592006 0.7376883 2.2130649 0 0 Z " fill="#F7EFF7" transform="translate(177,371)"/>
<path d="M0 0 C1.9451 2.91765 2.45276317 4.62537285 3 8 C1.02 8.66 -0.96 9.32 -3 10 C-3.33 9.34 -3.66 8.68 -4 8 C-3.22265625 6.0546875 -3.22265625 6.0546875 -2.0625 3.875 C-1.49208984 2.78832031 -1.49208984 2.78832031 -0.91015625 1.6796875 C-0.60980469 1.12539062 -0.30945313 0.57109375 0 0 Z " fill="#C1B8C9" transform="translate(285,246)"/>
<path d="M0 0 C1.60080151 4.00200378 0.29279692 7.04556236 -1 11 C-2.32 11.33 -3.64 11.66 -5 12 C-5 10.35 -5 8.7 -5 7 C-4.34 7 -3.68 7 -3 7 C-3 6.34 -3 5.68 -3 5 C-2.34 5 -1.68 5 -1 5 C-0.67 3.35 -0.34 1.7 0 0 Z " fill="#DCD8EB" transform="translate(302,215)"/>
<path d="M0 0 C1.65 0.33 3.3 0.66 5 1 C5 2.32 5 3.64 5 5 C4.01 5 3.02 5 2 5 C2 5.99 2 6.98 2 8 C1.34 8 0.68 8 0 8 C-1.125 2.25 -1.125 2.25 0 0 Z " fill="#DAE2E2" transform="translate(347,161)"/>
<path d="M0 0 C0.66 0.33 1.32 0.66 2 1 C0.875 3.4375 0.875 3.4375 -1 6 C-4.0625 6.9375 -4.0625 6.9375 -7 7 C-7.66 6.34 -8.32 5.68 -9 5 C-7.54735962 4.1361871 -6.0876837 3.28419546 -4.625 2.4375 C-3.40683594 1.72400391 -3.40683594 1.72400391 -2.1640625 0.99609375 C-1.44992187 0.66738281 -0.73578125 0.33867187 0 0 Z " fill="#A19DAC" transform="translate(296,309)"/>
<path d="M0 0 C-0.66 0 -1.32 0 -2 0 C-2.33 0.99 -2.66 1.98 -3 3 C-5.89558441 4.4477922 -7.74188938 5 -11 5 C-9.96508351 2.17750049 -9.30084735 1.16625774 -6.625 -0.3125 C-3.89420147 -1.02770914 -2.60810739 -0.9659657 0 0 Z " fill="#EAD5E8" transform="translate(211,126)"/>
<path d="M0 0 C6.15222436 0.43173504 9.81917949 1.65405342 15 5 C12.47598278 5.91625283 11.29258938 6.09936056 8.7109375 5.22265625 C7.94007813 4.83980469 7.16921875 4.45695313 6.375 4.0625 C3.32116186 2.46533357 3.32116186 2.46533357 0 2 C0 1.34 0 0.68 0 0 Z " fill="#BFB8C2" transform="translate(292,125)"/>
<path d="M0 0 C1.32 0 2.64 0 4 0 C4 1.98 4 3.96 4 6 C2.35 6 0.7 6 -1 6 C-0.67 4.02 -0.34 2.04 0 0 Z " fill="#B9B7BE" transform="translate(279,377)"/>
<path d="M0 0 C0.33 0 0.66 0 1 0 C1 3.96 1 7.92 1 12 C0.01 12.33 -0.98 12.66 -2 13 C-3.32 11.68 -4.64 10.36 -6 9 C-4.35 8.67 -2.7 8.34 -1 8 C-0.67 5.36 -0.34 2.72 0 0 Z " fill="#7B787D" transform="translate(260,369)"/>
<path d="M0 0 C0.99 0 1.98 0 3 0 C2.1875 2.4375 2.1875 2.4375 1 5 C0.01 5.33 -0.98 5.66 -2 6 C-2 7.32 -2 8.64 -2 10 C-3.32 10.33 -4.64 10.66 -6 11 C-5.1875 8.5625 -5.1875 8.5625 -4 6 C-3.01 5.67 -2.02 5.34 -1 5 C-0.67 3.35 -0.34 1.7 0 0 Z " fill="#B3B5BA" transform="translate(332,296)"/>
<path d="M0 0 C0.66 0.33 1.32 0.66 2 1 C0.12050295 4.57104439 -1.17053157 6.54744301 -5 8 C-5 6.02 -5 4.04 -5 2 C-2.625 0.9375 -2.625 0.9375 0 0 Z " fill="#C5C7CF" transform="translate(285,254)"/>
<path d="M0 0 C0.33 0.66 0.66 1.32 1 2 C-1 4 -1 4 -3 6 C-3.7115625 6.8353125 -3.7115625 6.8353125 -4.4375 7.6875 C-6.50626244 9.42526045 -8.36159497 9.64345878 -11 10 C-10.34 9.67 -9.68 9.34 -9 9 C-9 8.34 -9 7.68 -9 7 C-7.03125 5.2734375 -7.03125 5.2734375 -4.5 3.375 C-3.6646875 2.74335938 -2.829375 2.11171875 -1.96875 1.4609375 C-0.99421875 0.73777344 -0.99421875 0.73777344 0 0 Z " fill="#B5A8D3" transform="translate(182,140)"/>
<path d="M0 0 C2.38564077 0.57584432 4.66682784 1.22227595 7 2 C7.33 2.99 7.66 3.98 8 5 C6.35 5.66 4.7 6.32 3 7 C2.01 4.69 1.02 2.38 0 0 Z " fill="#E4E6EB" transform="translate(299,129)"/>
<path d="M0 0 C0.33 1.65 0.66 3.3 1 5 C-3.455 5.495 -3.455 5.495 -8 6 C-8 5.34 -8 4.68 -8 4 C-3.64705882 0 -3.64705882 0 0 0 Z " fill="#CABFCC" transform="translate(252,74)"/>
<path d="M0 0 C0.33 0 0.66 0 1 0 C0.67 2.31 0.34 4.62 0 7 C-2.64 7.33 -5.28 7.66 -8 8 C-8.33 6.68 -8.66 5.36 -9 4 C-8.01 4.33 -7.02 4.66 -6 5 C-3.90708843 4.91428339 -3.90708843 4.91428339 -2 4 C-0.71563266 2.0162233 -0.71563266 2.0162233 0 0 Z " fill="#6A6776" transform="translate(294,401)"/>
<path d="M0 0 C2.475 0.495 2.475 0.495 5 1 C5.33 2.98 5.66 4.96 6 7 C5.01 6.34 4.02 5.68 3 5 C3 4.34 3 3.68 3 3 C2.34 3 1.68 3 1 3 C1 4.65 1 6.3 1 8 C0.67 8 0.34 8 0 8 C0 5.36 0 2.72 0 0 Z " fill="#9C999C" transform="translate(135,374)"/>
<path d="M0 0 C1.125 1.75 1.125 1.75 2 4 C1.125 6.25 1.125 6.25 0 8 C-0.66 8 -1.32 8 -2 8 C-2 8.66 -2 9.32 -2 10 C-2.99 10.33 -3.98 10.66 -5 11 C-3.55049545 7.2089881 -1.84827434 3.6125362 0 0 Z " fill="#BDB3D5" transform="translate(314,188)"/>
<path d="M0 0 C4.95 0.33 9.9 0.66 15 1 C11.94869632 3.03420245 10.59724873 3.75473304 7 4 C4.52435943 3.19708955 2.34874852 2.15134732 0 1 C0 0.67 0 0.34 0 0 Z " fill="#9A9697" transform="translate(109,379)"/>
<path d="M0 0 C0.66 0.33 1.32 0.66 2 1 C2.63019694 9.19256018 2.63019694 9.19256018 0 12.5625 C-0.99 13.2740625 -0.99 13.2740625 -2 14 C-2.33 12.68 -2.66 11.36 -3 10 C-2.34 9.67 -1.68 9.34 -1 9 C-0.53348793 6.87423218 -0.53348793 6.87423218 -0.375 4.4375 C-0.30023438 3.61121094 -0.22546875 2.78492188 -0.1484375 1.93359375 C-0.09945312 1.29550781 -0.05046875 0.65742188 0 0 Z " fill="#AFA8AC" transform="translate(170,366)"/>
<path d="M0 0 C1.10370043 3.3111013 0.92673641 5.24748949 0.5625 8.6875 C0.46066406 9.68136719 0.35882813 10.67523438 0.25390625 11.69921875 C0.12822266 12.83810547 0.12822266 12.83810547 0 14 C-0.33 14 -0.66 14 -1 14 C-1.33 12.35 -1.66 10.7 -2 9 C-2.99 9.495 -2.99 9.495 -4 10 C-3.43454163 6.04179141 -2.19097652 3.3340947 0 0 Z " fill="#888687" transform="translate(326,368)"/>
<path d="M0 0 C1.65 0 3.3 0 5 0 C5 2.31 5 4.62 5 7 C4.01 7 3.02 7 2 7 C1.34 4.69 0.68 2.38 0 0 Z " fill="#F9EFF8" transform="translate(174,362)"/>
<path d="M0 0 C0.66 0 1.32 0 2 0 C2 0.66 2 1.32 2 2 C2.99 2.33 3.98 2.66 5 3 C-0.75 8 -0.75 8 -3 8 C-2.67 6.35 -2.34 4.7 -2 3 C-1.01 3 -0.02 3 1 3 C0.67 2.01 0.34 1.02 0 0 Z " fill="#838184" transform="translate(316,313)"/>
<path d="M0 0 C3.00617269 3.00617269 2.59585316 5.82381598 3 10 C2.01 10 1.02 10 0 10 C-1.60339848 6.88228073 -2.18974141 5.60988311 -1.125 2.1875 C-0.75375 1.465625 -0.3825 0.74375 0 0 Z " fill="#D7D7D7" transform="translate(295,371)"/>
<path d="M0 0 C0.33 1.32 0.66 2.64 1 4 C-5.48605578 6.5059761 -5.48605578 6.5059761 -9 5 C-9.66 4.34 -10.32 3.68 -11 3 C-7.37 3 -3.74 3 0 3 C0 2.01 0 1.02 0 0 Z " fill="#69656F" transform="translate(349,362)"/>
<path d="M0 0 C0.66 0 1.32 0 2 0 C1.34 1.98 0.68 3.96 0 6 C-1.98 6.33 -3.96 6.66 -6 7 C-5.67 6.01 -5.34 5.02 -5 4 C-2.4375 2.8125 -2.4375 2.8125 0 2 C0 1.34 0 0.68 0 0 Z " fill="#B2BAC6" transform="translate(318,297)"/>
<path d="M0 0 C0.66 0.33 1.32 0.66 2 1 C2.99 0.67 3.98 0.34 5 0 C4.40138258 2.35171131 3.73075648 4.6859378 3 7 C2.01 7.495 2.01 7.495 1 8 C0.26919734 6.02253397 -0.39421747 4.01927511 -1 2 C-0.67 1.34 -0.34 0.68 0 0 Z " fill="#92959B" transform="translate(348,270)"/>
<path d="M0 0 C1.98 0.99 1.98 0.99 4 2 C3.34 2 2.68 2 2 2 C2 2.99 2 3.98 2 5 C2.66 5 3.32 5 4 5 C4.625 7.375 4.625 7.375 5 10 C4.34 10.66 3.68 11.32 3 12 C2.49440092 10.56445975 1.9957251 9.1264798 1.5 7.6875 C1.2215625 6.88699219 0.943125 6.08648437 0.65625 5.26171875 C0 3 0 3 0 0 Z " fill="#A49BAA" transform="translate(187,224)"/>
<path d="M0 0 C0.66 0.33 1.32 0.66 2 1 C2 4.96 2 8.92 2 13 C0.68 13 -0.64 13 -2 13 C-2 12.34 -2 11.68 -2 11 C-1.34 11 -0.68 11 0 11 C0 7.37 0 3.74 0 0 Z " fill="#E1DDE2" transform="translate(369,366)"/>
<path d="M0 0 C1.67542976 0.28604898 3.34385343 0.61781233 5 1 C4.46930939 4.82097239 3.50298434 7.06171403 1 10 C1.33 7.36 1.66 4.72 2 2 C1.01 1.67 0.02 1.34 -1 1 C-0.67 0.67 -0.34 0.34 0 0 Z " fill="#8B838A" transform="translate(215,360)"/>
<path d="M0 0 C3.26954202 0.56371414 4.82575883 1.49962266 7 4 C6.34 4.66 5.68 5.32 5 6 C5 6.66 5 7.32 5 8 C4.34 8 3.68 8 3 8 C1.92474806 5.34771188 0.90543849 2.71631546 0 0 Z " fill="#ABA3AF" transform="translate(199,304)"/>
<path d="M0 0 C0.66 0 1.32 0 2 0 C1.67 3.96 1.34 7.92 1 12 C0.34 11.67 -0.32 11.34 -1 11 C-1.125 3.375 -1.125 3.375 0 0 Z " fill="#D7D6E1" transform="translate(188,213)"/>
<path d="M0 0 C0.99 0 1.98 0 3 0 C3 0.66 3 1.32 3 2 C4.32 2.33 5.64 2.66 7 3 C6.34 3.66 5.68 4.32 5 5 C2.375 4.625 2.375 4.625 0 4 C0 2.68 0 1.36 0 0 Z " fill="#D4DBDA" transform="translate(249,175)"/>
<path d="M0 0 C2.625 0.9375 2.625 0.9375 5 2 C5 2.33 5 2.66 5 3 C-0.94 3 -6.88 3 -13 3 C-13 2.67 -13 2.34 -13 2 C-12.22914063 1.93941406 -11.45828125 1.87882813 -10.6640625 1.81640625 C-9.15972656 1.69072266 -9.15972656 1.69072266 -7.625 1.5625 C-6.62726563 1.48128906 -5.62953125 1.40007812 -4.6015625 1.31640625 C-2.02072387 1.15034374 -2.02072387 1.15034374 0 0 Z " fill="#E0DFE3" transform="translate(256,131)"/>
<path d="M0 0 C1 3 1 3 0 6 C-2.31 5.34 -4.62 4.68 -7 4 C-6.67 3.01 -6.34 2.02 -6 1 C-5.01 1.33 -4.02 1.66 -3 2 C-2.01 1.34 -1.02 0.68 0 0 Z " fill="#7C777F" transform="translate(251,403)"/>
<path d="M0 0 C0.99 0.33 1.98 0.66 3 1 C3 1.66 3 2.32 3 3 C2.01 3 1.02 3 0 3 C0 3.66 0 4.32 0 5 C-1.32 5.33 -2.64 5.66 -4 6 C-4 4.35 -4 2.7 -4 1 C-2.68 1.33 -1.36 1.66 0 2 C0 1.34 0 0.68 0 0 Z " fill="#C9B7C9" transform="translate(212,400)"/>
<path d="M0 0 C3.3 0.33 6.6 0.66 10 1 C10 1.66 10 2.32 10 3 C2.25 3.125 2.25 3.125 0 2 C0 1.34 0 0.68 0 0 Z " fill="#F7F1F2" transform="translate(109,377)"/>
<path d="M0 0 C0.66 0 1.32 0 2 0 C2.33 0.99 2.66 1.98 3 3 C3.99 3.33 4.98 3.66 6 4 C6.33 3.34 6.66 2.68 7 2 C7.33 2.99 7.66 3.98 8 5 C5.69 5.33 3.38 5.66 1 6 C1 5.34 1 4.68 1 4 C0.01 3.67 -0.98 3.34 -2 3 C-1.34 2.01 -0.68 1.02 0 0 Z " fill="#E4DFE2" transform="translate(224,370)"/>
<path d="M0 0 C0.66 0 1.32 0 2 0 C0.68938409 4.23429756 -0.94356259 8.07407404 -3 12 C-4.10844919 8.67465243 -3.84454356 6.37817425 -3 3 C-2.01 3 -1.02 3 0 3 C0 2.01 0 1.02 0 0 Z " fill="#848287" transform="translate(286,289)"/>
<path d="M0 0 C1.31157516 2.62315032 0.89649988 4.23033436 0.5625 7.125 C0.46066406 8.03507813 0.35882813 8.94515625 0.25390625 9.8828125 C0.12822266 10.93082031 0.12822266 10.93082031 0 12 C-2.430466 9.569534 -2.76271993 8.4010144 -3 5 C-1.5625 2.1875 -1.5625 2.1875 0 0 Z " fill="#86868F" transform="translate(268,227)"/>
<path d="M0 0 C1.32 0.33 2.64 0.66 4 1 C3.34 1.66 2.68 2.32 2 3 C2 3.99 2 4.98 2 6 C1.34 6 0.68 6 0 6 C-0.33 6.99 -0.66 7.98 -1 9 C-1.66 9 -2.32 9 -3 9 C-3 7.68 -3 6.36 -3 5 C-2.01 5 -1.02 5 0 5 C0 3.35 0 1.7 0 0 Z " fill="#E3E6EE" transform="translate(318,183)"/>
<path d="M0 0 C0.66 0.33 1.32 0.66 2 1 C1.67 1.99 1.34 2.98 1 4 C-1.31 4.33 -3.62 4.66 -6 5 C-6.33 4.34 -6.66 3.68 -7 3 C-4.69631264 1.93347808 -2.35981813 0.93578995 0 0 Z " fill="#CEC4D2" transform="translate(216,174)"/>
<path d="M0 0 C0.66 0 1.32 0 2 0 C2 2.64 2 5.28 2 8 C0.68 7.67 -0.64 7.34 -2 7 C-1.34 4.69 -0.68 2.38 0 0 Z " fill="#E5E0E2" transform="translate(133,374)"/>
<path d="M0 0 C1.5 1.1875 1.5 1.1875 3 3 C3.1875 5.6875 3.1875 5.6875 3 8 C3.66 8 4.32 8 5 8 C5 7.34 5 6.68 5 6 C5.66 6.33 6.32 6.66 7 7 C6.01 8.485 6.01 8.485 5 10 C2 9 2 9 0.8125 6.6875 C0 4 0 4 0 0 Z " fill="#9A919B" transform="translate(177,373)"/>
<path d="M0 0 C2.42520546 2.42520546 2.68564441 3.62067741 3 7 C2.0625 9.8125 2.0625 9.8125 1 12 C0.67 12 0.34 12 0 12 C0 8.04 0 4.08 0 0 Z " fill="#8C868B" transform="translate(371,366)"/>
<path d="M0 0 C0.66 0.33 1.32 0.66 2 1 C2.1875 3.375 2.1875 3.375 2 6 C1.01 6.66 0.02 7.32 -1 8 C-1.93065133 5.39417629 -2.14917407 4.35801776 -1.0625 1.75 C-0.711875 1.1725 -0.36125 0.595 0 0 Z " fill="#F8F1F4" transform="translate(196,361)"/>
<path d="M0 0 C1.32 0.33 2.64 0.66 4 1 C3.01 1 2.02 1 1 1 C1.33 1.99 1.66 2.98 2 4 C1.01 4 0.02 4 -1 4 C-1 5.65 -1 7.3 -1 9 C-1.99 9.33 -2.98 9.66 -4 10 C-2.99806563 6.20696275 -2.18975773 3.28463659 0 0 Z " fill="#B8B0C0" transform="translate(287,361)"/>
<path d="M0 0 C-2.64738916 1.4606285 -3.89448334 2 -7 2 C-7.66 3.32 -8.32 4.64 -9 6 C-9.99 6 -10.98 6 -12 6 C-10.9802352 3.21882328 -10.33608762 2.18166898 -7.6875 0.75 C-4.98166314 -0.00511726 -2.79292118 -0.1595955 0 0 Z " fill="#9A93AB" transform="translate(119,360)"/>
<path d="M0 0 C3.63 0 7.26 0 11 0 C11 0.99 11 1.98 11 3 C9.02 3 7.04 3 5 3 C5 2.67 5 2.34 5 2 C3.35 1.67 1.7 1.34 0 1 C0 0.67 0 0.34 0 0 Z " fill="#998F9B" transform="translate(237,320)"/>
<path d="M0 0 C0.66 0.66 1.32 1.32 2 2 C2.66 1.67 3.32 1.34 4 1 C4.33 1.99 4.66 2.98 5 4 C4.34 4 3.68 4 3 4 C2.67 4.66 2.34 5.32 2 6 C0.0625 5.6875 0.0625 5.6875 -2 5 C-2.33 4.01 -2.66 3.02 -3 2 C-2.01 1.34 -1.02 0.68 0 0 Z " fill="#B1AFBB" transform="translate(301,306)"/>
<path d="M0 0 C-1 2 -1 2 -3.4375 3.1875 C-6 4 -6 4 -8 3 C-7.67 2.01 -7.34 1.02 -7 0 C-4.05610218 -1.17755913 -3.10046087 -1.03348696 0 0 Z " fill="#ECE0EB" transform="translate(200,132)"/>
<path d="M0 0 C0.93065133 2.60582371 1.14917407 3.64198224 0.0625 6.25 C-0.4634375 7.11625 -0.4634375 7.11625 -1 8 C-0.01 8.33 0.98 8.66 2 9 C0.68 9.33 -0.64 9.66 -2 10 C-2.6875 8.375 -2.6875 8.375 -3 6 C-1.5625 2.75 -1.5625 2.75 0 0 Z " fill="#968E9E" transform="translate(221,373)"/>
<path d="M0 0 C0.99 0.33 1.98 0.66 3 1 C3 2.98 3 4.96 3 7 C2.34 7 1.68 7 1 7 C-1 4 -1 4 -0.625 1.8125 C-0.41875 1.214375 -0.2125 0.61625 0 0 Z " fill="#F2F0F3" transform="translate(191,373)"/>
<path d="M0 0 C1.18414294 3.55242882 0.69535532 4.69830562 -0.4375 8.1875 C-0.72496094 9.08855469 -1.01242188 9.98960937 -1.30859375 10.91796875 C-1.53675781 11.60503906 -1.76492187 12.29210937 -2 13 C-2.33 13 -2.66 13 -3 13 C-3.4726477 4.80743982 -3.4726477 4.80743982 -1.5 1.4375 C-0.7575 0.7259375 -0.7575 0.7259375 0 0 Z " fill="#999599" transform="translate(198,365)"/>
<path d="M0 0 C1 3 1 3 1 5 C1.66 5.33 2.32 5.66 3 6 C0.69 6.33 -1.62 6.66 -4 7 C-3.67 5.02 -3.34 3.04 -3 1 C-2.01 0.67 -1.02 0.34 0 0 Z " fill="#787278" transform="translate(122,365)"/>
<path d="M0 0 C0.66 0.33 1.32 0.66 2 1 C2.625 4.0625 2.625 4.0625 3 7 C1.35 6.67 -0.3 6.34 -2 6 C-2 4.68 -2 3.36 -2 2 C-1.34 2 -0.68 2 0 2 C0 1.34 0 0.68 0 0 Z " fill="#DED7DF" transform="translate(396,363)"/>
<path d="M0 0 C2.475 0.495 2.475 0.495 5 1 C5.1875 3.875 5.1875 3.875 5 7 C4.01 7.66 3.02 8.32 2 9 C2 6.69 2 4.38 2 2 C1.34 2 0.68 2 0 2 C0 1.34 0 0.68 0 0 Z " fill="#B7B4BF" transform="translate(267,290)"/>
<path d="M0 0 C0.99 0 1.98 0 3 0 C1.25 5.75 1.25 5.75 -1 8 C-1.93065133 5.39417629 -2.14917407 4.35801776 -1.0625 1.75 C-0.711875 1.1725 -0.36125 0.595 0 0 Z " fill="#95969A" transform="translate(346,279)"/>
<path d="M0 0 C0.6875 1.625 0.6875 1.625 1 4 C-0.4375 7.25 -0.4375 7.25 -2 10 C-2.66 10 -3.32 10 -4 10 C-3.29445932 6.33118845 -1.72264494 3.29549466 0 0 Z " fill="#ADA0D0" transform="translate(308,200)"/>
<path d="M0 0 C0.99 1.32 1.98 2.64 3 4 C2.525625 4.45375 2.05125 4.9075 1.5625 5.375 C-0.09027808 6.93258204 -0.09027808 6.93258204 -1 9 C-1.99 9.495 -1.99 9.495 -3 10 C-2.67 7.69 -2.34 5.38 -2 3 C-1.34 3 -0.68 3 0 3 C0 2.01 0 1.02 0 0 Z " fill="#E1E0EA" transform="translate(192,195)"/>
<path d="M0 0 C0.8125 1.6875 0.8125 1.6875 1 4 C-1.4375 6.75 -1.4375 6.75 -4 9 C-3.6875 5.625 -3.6875 5.625 -3 2 C-2.01 1.34 -1.02 0.68 0 0 Z " fill="#E8E3EE" transform="translate(151,185)"/>
<path d="M0 0 C1.60080151 4.00200378 0.29279692 7.04556236 -1 11 C-2.32 11.33 -3.64 11.66 -5 12 C-3.41037341 7.96479403 -1.71767682 3.98188718 0 0 Z " fill="#B3A4CA" transform="translate(337,144)"/>
<path d="M0 0 C2.97 0.33 5.94 0.66 9 1 C6.28817788 3.60334924 5.10866187 3.99456691 1.25 4.1875 C0.1775 4.125625 -0.895 4.06375 -2 4 C-1.34 2.68 -0.68 1.36 0 0 Z " fill="#F2DFF3" transform="translate(238,116)"/>
<path d="M0 0 C1.98 0 3.96 0 6 0 C5.34 1.32 4.68 2.64 4 4 C2.35 3.67 0.7 3.34 -1 3 C-0.67 2.01 -0.34 1.02 0 0 Z " fill="#F1ECED" transform="translate(158,378)"/>
<path d="M0 0 C2.64 0 5.28 0 8 0 C7.67 0.99 7.34 1.98 7 3 C2.25 3.125 2.25 3.125 0 2 C0 1.34 0 0.68 0 0 Z " fill="#FBF6FA" transform="translate(134,362)"/>
<path d="M0 0 C2.97 0 5.94 0 9 0 C6.79947406 2.20052594 5.94858104 2.3929392 3 3 C1.88625 3.2784375 1.88625 3.2784375 0.75 3.5625 C0.1725 3.706875 -0.405 3.85125 -1 4 C-0.67 2.68 -0.34 1.36 0 0 Z " fill="#FBF6F9" transform="translate(112,362)"/>
<path d="M0 0 C0.66 0 1.32 0 2 0 C0.90931332 3.77545388 0.0916909 6.47043472 -3 9 C-3 6.36 -3 3.72 -3 1 C-2.01 1.33 -1.02 1.66 0 2 C0 1.34 0 0.68 0 0 Z " fill="#939297" transform="translate(295,272)"/>
<path d="M0 0 C0.33 0.99 0.66 1.98 1 3 C0.01 3.33 -0.98 3.66 -2 4 C-2.33 3.67 -2.66 3.34 -3 3 C-4.68183948 2.76712992 -6.3712416 2.58735834 -8.0625 2.4375 C-9.44115234 2.31181641 -9.44115234 2.31181641 -10.84765625 2.18359375 C-11.91306641 2.09271484 -11.91306641 2.09271484 -13 2 C-13 1.67 -13 1.34 -13 1 C-6.565 0.505 -6.565 0.505 0 0 Z " fill="#D8E4EC" transform="translate(355,236)"/>
<path d="M0 0 C0.99 0.33 1.98 0.66 3 1 C2.6875 2.875 2.6875 2.875 2 5 C1.01 5.66 0.02 6.32 -1 7 C-1.625 4.625 -1.625 4.625 -2 2 C-1.34 1.34 -0.68 0.68 0 0 Z " fill="#9B969B" transform="translate(259,82)"/>
<path d="M0 0 C0.33 0.99 0.66 1.98 1 3 C1.66 3 2.32 3 3 3 C3.33 2.01 3.66 1.02 4 0 C4.6875 1.8125 4.6875 1.8125 5 4 C3.5625 5.75 3.5625 5.75 2 7 C0 4 0 4 0 0 Z " fill="#958C97" transform="translate(207,366)"/>
<path d="M0 0 C1.21236328 0.04060547 1.21236328 0.04060547 2.44921875 0.08203125 C3.06410156 0.11683594 3.67898437 0.15164062 4.3125 0.1875 C0.27957255 2.4219598 -3.13717434 2.73246743 -7.6875 3.1875 C-5.26849268 0.20484049 -3.789448 -0.16475861 0 0 Z " fill="#EBE8F0" transform="translate(222.6875,173.8125)"/>
<path d="M0 0 C0.99 0.33 1.98 0.66 3 1 C3.33 2.65 3.66 4.3 4 6 C2.68 6.33 1.36 6.66 0 7 C0 4.69 0 2.38 0 0 Z " fill="#E3E4E7" transform="translate(376,121)"/>
<path d="M0 0 C0.33 1.32 0.66 2.64 1 4 C-1.31 4.33 -3.62 4.66 -6 5 C-6.33 3.68 -6.66 2.36 -7 1 C-6.67 1.66 -6.34 2.32 -6 3 C-4.02 2.67 -2.04 2.34 0 2 C0 1.34 0 0.68 0 0 Z " fill="#7D7A89" transform="translate(212,403)"/>
<path d="M0 0 C1.32 0.99 2.64 1.98 4 3 C3.34 3.66 2.68 4.32 2 5 C-0.5625 4.75 -0.5625 4.75 -3 4 C-3.33 3.34 -3.66 2.68 -4 2 C-2.68 2 -1.36 2 0 2 C0 1.34 0 0.68 0 0 Z " fill="#D9D6E1" transform="translate(289,400)"/>
<path d="M0 0 C0.33 0 0.66 0 1 0 C1 2.31 1 4.62 1 7 C-0.32 7.33 -1.64 7.66 -3 8 C-3 7.34 -3 6.68 -3 6 C-2.34 6 -1.68 6 -1 6 C-1.0309375 4.7934375 -1.0309375 4.7934375 -1.0625 3.5625 C-1 1 -1 1 0 0 Z " fill="#635C5D" transform="translate(313,375)"/>
<path d="M0 0 C0.33 0 0.66 0 1 0 C1 1.98 1 3.96 1 6 C1.66 6.33 2.32 6.66 3 7 C2.01 8.32 1.02 9.64 0 11 C-1.28571429 3.57142857 -1.28571429 3.57142857 0 0 Z " fill="#CDB4CD" transform="translate(106,366)"/>
<path d="M0 0 C3.0916909 2.52956528 3.90931332 5.22454612 5 9 C4.34 9 3.68 9 3 9 C2.71125 8.38125 2.4225 7.7625 2.125 7.125 C1.06279958 4.86674235 1.06279958 4.86674235 -1 3 C-0.67 2.01 -0.34 1.02 0 0 Z " fill="#A59FA6" transform="translate(230,362)"/>
<path d="M0 0 C0.66 0.66 1.32 1.32 2 2 C0.35 3.65 -1.3 5.3 -3 7 C-3.1875 4.625 -3.1875 4.625 -3 2 C-2.01 1.34 -1.02 0.68 0 0 Z " fill="#7F7D81" transform="translate(333,300)"/>
<path d="M0 0 C0.66 0.33 1.32 0.66 2 1 C0.25 5.875 0.25 5.875 -2 7 C-2.33 5.35 -2.66 3.7 -3 2 C-2.01 1.34 -1.02 0.68 0 0 Z " fill="#BCB6C8" transform="translate(325,283)"/>
<path d="M0 0 C2.64465038 3.1254959 3.84414715 6.08788267 5 10 C3.68 9.67 2.36 9.34 1 9 C1.33 7.68 1.66 6.36 2 5 C1.34 5 0.68 5 0 5 C0 3.35 0 1.7 0 0 Z " fill="#827D84" transform="translate(171,266)"/>
<path d="M0 0 C2.6855594 2.6855594 3.06049974 5.37621328 4 9 C2.35 8.01 0.7 7.02 -1 6 C-0.67 4.02 -0.34 2.04 0 0 Z " fill="#8E8A94" transform="translate(273,251)"/>
<path d="M0 0 C0.99 0.33 1.98 0.66 3 1 C2.34 2.98 1.68 4.96 1 7 C0.34 7 -0.32 7 -1 7 C-1.04254356 5.00045254 -1.04080783 2.99958364 -1 1 C-0.67 0.67 -0.34 0.34 0 0 Z " fill="#E6E8F0" transform="translate(325,170)"/>
<path d="M0 0 C-0.5625 1.875 -0.5625 1.875 -2 4 C-5.625 5.25 -5.625 5.25 -9 6 C-3.2 0 -3.2 0 0 0 Z " fill="#CBB9CC" transform="translate(192,134)"/>
<path d="M0 0 C0 0.99 0 1.98 0 3 C-2.31 3 -4.62 3 -7 3 C-7 2.34 -7 1.68 -7 1 C-4.50935112 0.31292445 -2.62113708 0 0 0 Z " fill="#EEE7EC" transform="translate(280,362)"/>
<path d="M0 0 C2.0625 0.4375 2.0625 0.4375 4 1 C4 1.66 4 2.32 4 3 C3.01 3.33 2.02 3.66 1 4 C0.34 4.99 -0.32 5.98 -1 7 C-1.04254356 5.00045254 -1.04080783 2.99958364 -1 1 C-0.67 0.67 -0.34 0.34 0 0 Z " fill="#CDC5D0" transform="translate(244,361)"/>
<path d="M0 0 C0.82638376 2.89234315 1 4.88742431 1 8 C0.01 8.33 -0.98 8.66 -2 9 C-2.33 8.34 -2.66 7.68 -3 7 C-2.34 6.67 -1.68 6.34 -1 6 C-1 4.68 -1 3.36 -1 2 C-0.67 1.34 -0.34 0.68 0 0 Z " fill="#9B9A9D" transform="translate(323,306)"/>
<path d="M0 0 C1.5625 1.25 1.5625 1.25 3 3 C2.6875 5.1875 2.6875 5.1875 2 7 C2 6.34 2 5.68 2 5 C1.01 5.33 0.02 5.66 -1 6 C-1.33 5.01 -1.66 4.02 -2 3 C-1.34 2.01 -0.68 1.02 0 0 Z " fill="#D8DDE1" transform="translate(250,202)"/>
<path d="M0 0 C0.33 0 0.66 0 1 0 C1 1.98 1 3.96 1 6 C0.01 6.33 -0.98 6.66 -2 7 C-2.66 6.67 -3.32 6.34 -4 6 C-3.67 5.01 -3.34 4.02 -3 3 C-2.34 3 -1.68 3 -1 3 C-0.67 2.01 -0.34 1.02 0 0 Z " fill="#DADBDC" transform="translate(165,198)"/>
<path d="M0 0 C0.66 0.99 1.32 1.98 2 3 C-0.97 5.475 -0.97 5.475 -4 8 C-4 6.68 -4 5.36 -4 4 C-3.01 4 -2.02 4 -1 4 C-0.67 2.68 -0.34 1.36 0 0 Z " fill="#808387" transform="translate(219,192)"/>
<path d="M0 0 C1.98 0.99 1.98 0.99 4 2 C3.625 3.9375 3.625 3.9375 3 6 C2.01 6.495 2.01 6.495 1 7 C0.67 4.69 0.34 2.38 0 0 Z " fill="#99929D" transform="translate(313,135)"/>
</svg>
